<mxfile host="Electron" agent="Mozilla/5.0 (X11; Linux x86_64) AppleWebKit/537.36 (KHTML, like Gecko) draw.io/26.1.1 Chrome/132.0.6834.210 Electron/34.3.2 Safari/537.36" version="26.1.1">
  <diagram name="Page-1" id="AMtVWZxPCmcZlJui2JFJ">
    <mxGraphModel dx="1024" dy="601" grid="1" gridSize="10" guides="1" tooltips="1" connect="1" arrows="1" fold="1" page="1" pageScale="1" pageWidth="827" pageHeight="1169" math="0" shadow="0">
      <root>
        <mxCell id="0" />
        <mxCell id="1" parent="0" />
        <mxCell id="yB-q2PVRav_EBHRm1ZwY-75" value="" style="rounded=0;whiteSpace=wrap;html=1;fillColor=none;strokeColor=#EA6B66;strokeWidth=3;glass=0;shadow=0;connectable=1;allowArrows=0;editable=1;movable=1;resizable=1;rotatable=1;deletable=1;locked=0;" vertex="1" parent="1">
          <mxGeometry x="40" y="1240" width="750" height="630" as="geometry" />
        </mxCell>
        <mxCell id="yB-q2PVRav_EBHRm1ZwY-6" value="CP" style="rounded=0;whiteSpace=wrap;html=1;strokeColor=none;fontSize=8;" vertex="1" parent="1">
          <mxGeometry x="119.42999999999999" y="1320" width="50.04" height="20" as="geometry" />
        </mxCell>
        <mxCell id="yB-q2PVRav_EBHRm1ZwY-7" value="Schmidl &amp;amp; Cox preamble" style="rounded=0;whiteSpace=wrap;html=1;strokeColor=none;fontSize=8;" vertex="1" parent="1">
          <mxGeometry x="169.47" y="1320" width="170" height="20" as="geometry" />
        </mxCell>
        <mxCell id="yB-q2PVRav_EBHRm1ZwY-8" value="CP" style="rounded=0;whiteSpace=wrap;html=1;strokeColor=none;fontSize=8;" vertex="1" parent="1">
          <mxGeometry x="339.47" y="1320" width="50.04" height="20" as="geometry" />
        </mxCell>
        <mxCell id="yB-q2PVRav_EBHRm1ZwY-9" value="First OFDM symbol" style="rounded=0;whiteSpace=wrap;html=1;strokeColor=none;fontSize=8;" vertex="1" parent="1">
          <mxGeometry x="389.51" y="1320" width="170" height="20" as="geometry" />
        </mxCell>
        <mxCell id="yB-q2PVRav_EBHRm1ZwY-10" value="CP" style="rounded=0;whiteSpace=wrap;html=1;strokeColor=none;fontSize=8;" vertex="1" parent="1">
          <mxGeometry x="559.51" y="1320" width="50.04" height="20" as="geometry" />
        </mxCell>
        <mxCell id="yB-q2PVRav_EBHRm1ZwY-11" value="..." style="rounded=0;whiteSpace=wrap;html=1;strokeColor=none;fontSize=8;" vertex="1" parent="1">
          <mxGeometry x="609.5500000000001" y="1320" width="69.92" height="20" as="geometry" />
        </mxCell>
        <mxCell id="A9EnLsKWtSBPzANMAu5m-155" value="" style="rounded=0;whiteSpace=wrap;html=1;fillColor=none;" parent="1" vertex="1">
          <mxGeometry x="119.42999999999999" y="1320" width="220.04" height="20" as="geometry" />
        </mxCell>
        <mxCell id="A9EnLsKWtSBPzANMAu5m-102" value="" style="rounded=0;whiteSpace=wrap;html=1;fillColor=none;strokeColor=#67AB9F;strokeWidth=3;glass=0;shadow=0;connectable=1;allowArrows=0;editable=1;movable=1;resizable=1;rotatable=1;deletable=1;locked=0;" parent="1" vertex="1">
          <mxGeometry x="90" y="60" width="620" height="1000" as="geometry" />
        </mxCell>
        <mxCell id="A9EnLsKWtSBPzANMAu5m-67" value="" style="rounded=0;whiteSpace=wrap;html=1;fillColor=none;strokeColor=#FFB570;strokeWidth=3;glass=0;shadow=0;connectable=1;allowArrows=0;editable=1;movable=1;resizable=1;rotatable=1;deletable=1;locked=0;" parent="1" vertex="1">
          <mxGeometry x="550" y="130" width="140" height="270" as="geometry" />
        </mxCell>
        <mxCell id="A9EnLsKWtSBPzANMAu5m-37" value="" style="rounded=0;whiteSpace=wrap;html=1;fillColor=none;strokeColor=#A680B8;strokeWidth=3;glass=0;shadow=0;connectable=1;allowArrows=0;editable=1;movable=1;resizable=1;rotatable=1;deletable=1;locked=0;" parent="1" vertex="1">
          <mxGeometry x="109.96000000000001" y="130" width="380" height="590" as="geometry" />
        </mxCell>
        <mxCell id="A9EnLsKWtSBPzANMAu5m-1" value="&lt;b&gt;rfnoc_bock_schmidl_cox Block Diagram&lt;/b&gt;" style="text;html=1;align=center;verticalAlign=middle;resizable=0;points=[];autosize=1;strokeColor=none;fillColor=none;" parent="1" vertex="1">
          <mxGeometry x="289" y="10" width="250" height="30" as="geometry" />
        </mxCell>
        <mxCell id="A9EnLsKWtSBPzANMAu5m-18" style="edgeStyle=orthogonalEdgeStyle;rounded=0;orthogonalLoop=1;jettySize=auto;html=1;exitX=0.5;exitY=1;exitDx=0;exitDy=0;entryX=0.5;entryY=0;entryDx=0;entryDy=0;endArrow=blockThin;endFill=1;" parent="1" source="A9EnLsKWtSBPzANMAu5m-8" target="A9EnLsKWtSBPzANMAu5m-9" edge="1">
          <mxGeometry relative="1" as="geometry">
            <Array as="points">
              <mxPoint x="320" y="200" />
              <mxPoint x="320" y="220" />
              <mxPoint x="260" y="220" />
            </Array>
          </mxGeometry>
        </mxCell>
        <mxCell id="A9EnLsKWtSBPzANMAu5m-108" value="&lt;font style=&quot;font-size: 8px;&quot;&gt;16 b/c&lt;/font&gt;" style="edgeLabel;html=1;align=center;verticalAlign=middle;resizable=0;points=[];" parent="A9EnLsKWtSBPzANMAu5m-18" vertex="1" connectable="0">
          <mxGeometry x="0.1729" relative="1" as="geometry">
            <mxPoint y="-3" as="offset" />
          </mxGeometry>
        </mxCell>
        <mxCell id="A9EnLsKWtSBPzANMAu5m-34" style="edgeStyle=orthogonalEdgeStyle;rounded=0;orthogonalLoop=1;jettySize=auto;html=1;exitX=0.5;exitY=1;exitDx=0;exitDy=0;endArrow=blockThin;endFill=1;" parent="1" source="A9EnLsKWtSBPzANMAu5m-8" target="A9EnLsKWtSBPzANMAu5m-17" edge="1">
          <mxGeometry relative="1" as="geometry">
            <Array as="points">
              <mxPoint x="360" y="200" />
              <mxPoint x="360" y="220" />
              <mxPoint x="420" y="220" />
            </Array>
          </mxGeometry>
        </mxCell>
        <mxCell id="A9EnLsKWtSBPzANMAu5m-109" value="&lt;font style=&quot;font-size: 8px;&quot;&gt;16 b/c&lt;/font&gt;" style="edgeLabel;html=1;align=center;verticalAlign=middle;resizable=0;points=[];" parent="A9EnLsKWtSBPzANMAu5m-34" vertex="1" connectable="0">
          <mxGeometry x="-0.1602" y="-1" relative="1" as="geometry">
            <mxPoint y="-3" as="offset" />
          </mxGeometry>
        </mxCell>
        <mxCell id="A9EnLsKWtSBPzANMAu5m-8" value="&lt;font style=&quot;line-height: 100%;&quot;&gt;&lt;b&gt;split_stream_fifo&lt;/b&gt;&lt;br&gt;&lt;i&gt;Split input stream into 2 identical streams&lt;/i&gt;&lt;/font&gt;" style="whiteSpace=wrap;html=1;noLabel=0;portConstraintRotation=0;snapToPoint=0;verticalAlign=top;textDirection=ltr;fontSize=8;spacingRight=2;spacingLeft=2;strokeColor=#7EA6E0;" parent="1" vertex="1">
          <mxGeometry x="279.96000000000004" y="160" width="120" height="40" as="geometry" />
        </mxCell>
        <mxCell id="A9EnLsKWtSBPzANMAu5m-20" style="edgeStyle=orthogonalEdgeStyle;rounded=0;orthogonalLoop=1;jettySize=auto;html=1;exitX=0.5;exitY=1;exitDx=0;exitDy=0;entryX=0.5;entryY=0;entryDx=0;entryDy=0;" parent="1" source="A9EnLsKWtSBPzANMAu5m-9" target="A9EnLsKWtSBPzANMAu5m-10" edge="1">
          <mxGeometry relative="1" as="geometry" />
        </mxCell>
        <mxCell id="A9EnLsKWtSBPzANMAu5m-110" value="&lt;font style=&quot;font-size: 8px;&quot;&gt;16 b/c&lt;/font&gt;" style="edgeLabel;html=1;align=center;verticalAlign=middle;resizable=0;points=[];" parent="A9EnLsKWtSBPzANMAu5m-20" vertex="1" connectable="0">
          <mxGeometry x="0.113" y="-1" relative="1" as="geometry">
            <mxPoint x="-1" y="-6" as="offset" />
          </mxGeometry>
        </mxCell>
        <mxCell id="A9EnLsKWtSBPzANMAu5m-9" value="&lt;font style=&quot;line-height: 100%;&quot;&gt;&lt;b&gt;delay_fifo&lt;/b&gt;&lt;br&gt;&lt;i&gt;Delay the input stream by K/2 OFDM symbols&lt;/i&gt;&lt;/font&gt;" style="whiteSpace=wrap;html=1;noLabel=0;portConstraintRotation=0;snapToPoint=0;verticalAlign=top;textDirection=ltr;fontSize=8;spacingRight=2;spacingLeft=2;strokeColor=#97D077;" parent="1" vertex="1">
          <mxGeometry x="199.96" y="240" width="120" height="40" as="geometry" />
        </mxCell>
        <mxCell id="A9EnLsKWtSBPzANMAu5m-21" style="edgeStyle=orthogonalEdgeStyle;rounded=0;orthogonalLoop=1;jettySize=auto;html=1;exitX=0.5;exitY=1;exitDx=0;exitDy=0;entryX=0.5;entryY=0;entryDx=0;entryDy=0;endArrow=blockThin;endFill=1;" parent="1" source="A9EnLsKWtSBPzANMAu5m-10" target="A9EnLsKWtSBPzANMAu5m-12" edge="1">
          <mxGeometry relative="1" as="geometry">
            <Array as="points">
              <mxPoint x="280" y="360" />
              <mxPoint x="280" y="380" />
              <mxPoint x="300" y="380" />
            </Array>
          </mxGeometry>
        </mxCell>
        <mxCell id="A9EnLsKWtSBPzANMAu5m-112" value="&lt;font style=&quot;font-size: 8px;&quot;&gt;16 b/c&lt;/font&gt;" style="edgeLabel;html=1;align=center;verticalAlign=middle;resizable=0;points=[];" parent="A9EnLsKWtSBPzANMAu5m-21" vertex="1" connectable="0">
          <mxGeometry x="0.1102" y="1" relative="1" as="geometry">
            <mxPoint y="-2" as="offset" />
          </mxGeometry>
        </mxCell>
        <mxCell id="A9EnLsKWtSBPzANMAu5m-22" style="edgeStyle=orthogonalEdgeStyle;rounded=0;orthogonalLoop=1;jettySize=auto;html=1;exitX=0.5;exitY=1;exitDx=0;exitDy=0;entryX=0.5;entryY=0;entryDx=0;entryDy=0;endArrow=blockThin;endFill=1;" parent="1" source="A9EnLsKWtSBPzANMAu5m-10" target="A9EnLsKWtSBPzANMAu5m-11" edge="1">
          <mxGeometry relative="1" as="geometry">
            <Array as="points">
              <mxPoint x="240" y="360" />
              <mxPoint x="240" y="380" />
              <mxPoint x="180" y="380" />
            </Array>
          </mxGeometry>
        </mxCell>
        <mxCell id="A9EnLsKWtSBPzANMAu5m-111" value="&lt;font style=&quot;font-size: 8px;&quot;&gt;16 b/c&lt;/font&gt;" style="edgeLabel;html=1;align=center;verticalAlign=middle;resizable=0;points=[];" parent="A9EnLsKWtSBPzANMAu5m-22" vertex="1" connectable="0">
          <mxGeometry x="0.4181" y="-1" relative="1" as="geometry">
            <mxPoint y="1" as="offset" />
          </mxGeometry>
        </mxCell>
        <mxCell id="A9EnLsKWtSBPzANMAu5m-10" value="&lt;font style=&quot;line-height: 100%;&quot;&gt;&lt;b&gt;split_stream_fifo&lt;/b&gt;&lt;br&gt;&lt;i&gt;Split input stream into 2 identical streams&lt;/i&gt;&lt;/font&gt;" style="whiteSpace=wrap;html=1;noLabel=0;portConstraintRotation=0;snapToPoint=0;verticalAlign=top;textDirection=ltr;fontSize=8;spacingRight=2;spacingLeft=2;strokeColor=#7EA6E0;" parent="1" vertex="1">
          <mxGeometry x="199.96" y="320" width="120" height="40" as="geometry" />
        </mxCell>
        <mxCell id="A9EnLsKWtSBPzANMAu5m-31" style="edgeStyle=orthogonalEdgeStyle;rounded=0;orthogonalLoop=1;jettySize=auto;html=1;exitX=0.5;exitY=1;exitDx=0;exitDy=0;endArrow=blockThin;endFill=1;entryX=0.5;entryY=0;entryDx=0;entryDy=0;" parent="1" source="A9EnLsKWtSBPzANMAu5m-11" target="A9EnLsKWtSBPzANMAu5m-97" edge="1">
          <mxGeometry relative="1" as="geometry">
            <mxPoint x="140" y="760" as="targetPoint" />
            <Array as="points" />
          </mxGeometry>
        </mxCell>
        <mxCell id="A9EnLsKWtSBPzANMAu5m-141" value="&lt;font style=&quot;font-size: 8px;&quot;&gt;16 b/c&lt;/font&gt;" style="edgeLabel;html=1;align=center;verticalAlign=middle;resizable=0;points=[];" parent="A9EnLsKWtSBPzANMAu5m-31" vertex="1" connectable="0">
          <mxGeometry x="0.2395" y="1" relative="1" as="geometry">
            <mxPoint x="1" y="3" as="offset" />
          </mxGeometry>
        </mxCell>
        <mxCell id="A9EnLsKWtSBPzANMAu5m-11" value="&lt;font style=&quot;line-height: 100%;&quot;&gt;&lt;b&gt;axi_latency&lt;/b&gt;&lt;br&gt;&lt;i&gt;Introduce a 8 symbols latency&lt;br&gt;(Syncronize streams)&lt;/i&gt;&lt;/font&gt;" style="whiteSpace=wrap;html=1;noLabel=0;portConstraintRotation=0;snapToPoint=0;verticalAlign=top;textDirection=ltr;fontSize=8;spacingRight=2;spacingLeft=2;strokeColor=#7EA6E0;" parent="1" vertex="1">
          <mxGeometry x="119.96000000000001" y="480" width="120" height="40" as="geometry" />
        </mxCell>
        <mxCell id="A9EnLsKWtSBPzANMAu5m-24" style="edgeStyle=orthogonalEdgeStyle;rounded=0;orthogonalLoop=1;jettySize=auto;html=1;exitX=0.5;exitY=1;exitDx=0;exitDy=0;entryX=0.334;entryY=-0.009;entryDx=0;entryDy=0;endArrow=blockThin;endFill=1;entryPerimeter=0;" parent="1" source="A9EnLsKWtSBPzANMAu5m-12" target="A9EnLsKWtSBPzANMAu5m-13" edge="1">
          <mxGeometry relative="1" as="geometry">
            <Array as="points">
              <mxPoint x="300" y="460" />
              <mxPoint x="320" y="460" />
            </Array>
          </mxGeometry>
        </mxCell>
        <mxCell id="A9EnLsKWtSBPzANMAu5m-114" value="&lt;font style=&quot;font-size: 8px;&quot;&gt;16 b/c&lt;/font&gt;" style="edgeLabel;html=1;align=center;verticalAlign=middle;resizable=0;points=[];" parent="A9EnLsKWtSBPzANMAu5m-24" vertex="1" connectable="0">
          <mxGeometry x="-0.4576" relative="1" as="geometry">
            <mxPoint as="offset" />
          </mxGeometry>
        </mxCell>
        <mxCell id="A9EnLsKWtSBPzANMAu5m-12" value="&lt;font style=&quot;line-height: 100%;&quot;&gt;&lt;b&gt;conj&lt;/b&gt;&lt;br&gt;&lt;i&gt;Compute the conjugate of the complex symbol intputs&lt;/i&gt;&lt;/font&gt;" style="whiteSpace=wrap;html=1;noLabel=0;portConstraintRotation=0;snapToPoint=0;verticalAlign=top;textDirection=ltr;fontSize=8;spacingRight=2;spacingLeft=2;strokeColor=#97D077;" parent="1" vertex="1">
          <mxGeometry x="239.96" y="400" width="120" height="40" as="geometry" />
        </mxCell>
        <mxCell id="A9EnLsKWtSBPzANMAu5m-25" style="edgeStyle=orthogonalEdgeStyle;rounded=0;orthogonalLoop=1;jettySize=auto;html=1;exitX=0.5;exitY=1;exitDx=0;exitDy=0;entryX=0.5;entryY=0;entryDx=0;entryDy=0;endArrow=blockThin;endFill=1;" parent="1" source="A9EnLsKWtSBPzANMAu5m-13" target="A9EnLsKWtSBPzANMAu5m-14" edge="1">
          <mxGeometry relative="1" as="geometry" />
        </mxCell>
        <mxCell id="A9EnLsKWtSBPzANMAu5m-26" style="edgeStyle=orthogonalEdgeStyle;rounded=0;orthogonalLoop=1;jettySize=auto;html=1;exitX=0.5;exitY=1;exitDx=0;exitDy=0;entryX=0.5;entryY=0;entryDx=0;entryDy=0;endArrow=blockThin;endFill=1;" parent="1" source="A9EnLsKWtSBPzANMAu5m-13" target="A9EnLsKWtSBPzANMAu5m-15" edge="1">
          <mxGeometry relative="1" as="geometry" />
        </mxCell>
        <mxCell id="A9EnLsKWtSBPzANMAu5m-115" value="&lt;font&gt;32 b/c&lt;/font&gt;" style="edgeLabel;html=1;align=center;verticalAlign=middle;resizable=0;points=[];fontSize=8;" parent="A9EnLsKWtSBPzANMAu5m-26" vertex="1" connectable="0">
          <mxGeometry x="-0.8174" relative="1" as="geometry">
            <mxPoint as="offset" />
          </mxGeometry>
        </mxCell>
        <mxCell id="A9EnLsKWtSBPzANMAu5m-13" value="&lt;font style=&quot;line-height: 100%;&quot;&gt;&lt;b&gt;cmul&lt;/b&gt;&lt;br&gt;&lt;i&gt;Complex multiplication of both input stream&lt;/i&gt;&lt;/font&gt;" style="whiteSpace=wrap;html=1;noLabel=0;portConstraintRotation=0;snapToPoint=0;verticalAlign=top;textDirection=ltr;fontSize=8;spacingRight=2;spacingLeft=2;strokeColor=#97D077;" parent="1" vertex="1">
          <mxGeometry x="279.96000000000004" y="480" width="120" height="40" as="geometry" />
        </mxCell>
        <mxCell id="A9EnLsKWtSBPzANMAu5m-27" style="edgeStyle=orthogonalEdgeStyle;rounded=0;orthogonalLoop=1;jettySize=auto;html=1;exitX=0.5;exitY=1;exitDx=0;exitDy=0;endArrow=blockThin;endFill=1;" parent="1" source="A9EnLsKWtSBPzANMAu5m-14" target="A9EnLsKWtSBPzANMAu5m-16" edge="1">
          <mxGeometry relative="1" as="geometry" />
        </mxCell>
        <mxCell id="A9EnLsKWtSBPzANMAu5m-14" value="&lt;font style=&quot;line-height: 100%;&quot;&gt;&lt;b&gt;moving_sum&lt;/b&gt;&lt;/font&gt;&lt;div&gt;&lt;font style=&quot;line-height: 100%;&quot;&gt;&lt;i&gt;Moving sum over K/2 real samples&lt;/i&gt;&lt;/font&gt;&lt;/div&gt;" style="whiteSpace=wrap;html=1;noLabel=0;portConstraintRotation=0;snapToPoint=0;verticalAlign=top;textDirection=ltr;fontSize=8;spacingRight=2;spacingLeft=2;strokeColor=#97D077;" parent="1" vertex="1">
          <mxGeometry x="199.96" y="560" width="120" height="40" as="geometry" />
        </mxCell>
        <mxCell id="A9EnLsKWtSBPzANMAu5m-28" style="edgeStyle=orthogonalEdgeStyle;rounded=0;orthogonalLoop=1;jettySize=auto;html=1;exitX=0.5;exitY=1;exitDx=0;exitDy=0;endArrow=blockThin;endFill=1;" parent="1" source="A9EnLsKWtSBPzANMAu5m-15" edge="1">
          <mxGeometry relative="1" as="geometry">
            <mxPoint x="339.96" y="640" as="targetPoint" />
          </mxGeometry>
        </mxCell>
        <mxCell id="A9EnLsKWtSBPzANMAu5m-116" value="&lt;font style=&quot;font-size: 8px;&quot;&gt;32+clog&lt;sub style=&quot;&quot;&gt;2&lt;/sub&gt;(K/2 + 1) b/c&lt;/font&gt;" style="edgeLabel;html=1;align=center;verticalAlign=middle;resizable=0;points=[];" parent="A9EnLsKWtSBPzANMAu5m-28" vertex="1" connectable="0">
          <mxGeometry x="0.8338" y="1" relative="1" as="geometry">
            <mxPoint as="offset" />
          </mxGeometry>
        </mxCell>
        <mxCell id="A9EnLsKWtSBPzANMAu5m-15" value="&lt;font style=&quot;line-height: 100%;&quot;&gt;&lt;b&gt;moving_sum&lt;/b&gt;&lt;/font&gt;&lt;div&gt;&lt;font style=&quot;line-height: 100%;&quot;&gt;&lt;i&gt;Moving sum over k/2 imaginary samples&lt;/i&gt;&lt;/font&gt;&lt;/div&gt;" style="whiteSpace=wrap;html=1;noLabel=0;portConstraintRotation=0;snapToPoint=0;verticalAlign=top;textDirection=ltr;fontSize=8;spacingRight=2;spacingLeft=2;strokeColor=#97D077;" parent="1" vertex="1">
          <mxGeometry x="359.96" y="560" width="120" height="40" as="geometry" />
        </mxCell>
        <mxCell id="A9EnLsKWtSBPzANMAu5m-30" style="edgeStyle=orthogonalEdgeStyle;rounded=0;orthogonalLoop=1;jettySize=auto;html=1;exitX=0.5;exitY=1;exitDx=0;exitDy=0;endArrow=blockThin;endFill=1;entryX=0.5;entryY=0;entryDx=0;entryDy=0;" parent="1" source="A9EnLsKWtSBPzANMAu5m-16" target="A9EnLsKWtSBPzANMAu5m-71" edge="1">
          <mxGeometry relative="1" as="geometry">
            <mxPoint x="359.96" y="760" as="targetPoint" />
            <Array as="points" />
          </mxGeometry>
        </mxCell>
        <mxCell id="A9EnLsKWtSBPzANMAu5m-121" value="&lt;font style=&quot;font-size: 8px;&quot;&gt;16 b/c&lt;/font&gt;" style="edgeLabel;html=1;align=center;verticalAlign=middle;resizable=0;points=[];" parent="A9EnLsKWtSBPzANMAu5m-30" vertex="1" connectable="0">
          <mxGeometry x="-0.4" relative="1" as="geometry">
            <mxPoint as="offset" />
          </mxGeometry>
        </mxCell>
        <mxCell id="A9EnLsKWtSBPzANMAu5m-16" value="&lt;div&gt;&lt;b&gt;complex_trunc&lt;/b&gt;&lt;/div&gt;&lt;font style=&quot;line-height: 100%;&quot;&gt;&lt;i&gt;Truncate the result back on &lt;br&gt;16 bits numbers / component&lt;/i&gt;&lt;/font&gt;" style="whiteSpace=wrap;html=1;noLabel=0;portConstraintRotation=0;snapToPoint=0;verticalAlign=top;textDirection=ltr;fontSize=8;spacingRight=2;spacingLeft=2;strokeColor=#7EA6E0;" parent="1" vertex="1">
          <mxGeometry x="279.96000000000004" y="640" width="120" height="40" as="geometry" />
        </mxCell>
        <mxCell id="A9EnLsKWtSBPzANMAu5m-33" style="edgeStyle=orthogonalEdgeStyle;rounded=0;orthogonalLoop=1;jettySize=auto;html=1;exitX=0.5;exitY=1;exitDx=0;exitDy=0;endArrow=blockThin;endFill=1;" parent="1" source="A9EnLsKWtSBPzANMAu5m-17" target="A9EnLsKWtSBPzANMAu5m-13" edge="1">
          <mxGeometry relative="1" as="geometry">
            <Array as="points">
              <mxPoint x="420" y="460" />
              <mxPoint x="360" y="460" />
            </Array>
          </mxGeometry>
        </mxCell>
        <mxCell id="A9EnLsKWtSBPzANMAu5m-113" value="&lt;font style=&quot;font-size: 8px;&quot;&gt;16 b/c&lt;/font&gt;" style="edgeLabel;html=1;align=center;verticalAlign=middle;resizable=0;points=[];" parent="A9EnLsKWtSBPzANMAu5m-33" vertex="1" connectable="0">
          <mxGeometry x="-0.647" y="1" relative="1" as="geometry">
            <mxPoint y="14" as="offset" />
          </mxGeometry>
        </mxCell>
        <mxCell id="A9EnLsKWtSBPzANMAu5m-17" value="&lt;font style=&quot;line-height: 100%;&quot;&gt;&lt;b&gt;split_stream_fifo&lt;/b&gt;&lt;br&gt;&lt;i&gt;Intoduce a 1 symbol latency&lt;br&gt;&lt;/i&gt;&lt;i&gt;(Syncronize streams)&lt;/i&gt;&lt;i&gt;&lt;/i&gt;&lt;/font&gt;" style="whiteSpace=wrap;html=1;noLabel=0;portConstraintRotation=0;snapToPoint=0;verticalAlign=top;textDirection=ltr;fontSize=8;spacingRight=2;spacingLeft=2;strokeColor=#7EA6E0;" parent="1" vertex="1">
          <mxGeometry x="359.96" y="320" width="120" height="40" as="geometry" />
        </mxCell>
        <mxCell id="A9EnLsKWtSBPzANMAu5m-36" style="edgeStyle=orthogonalEdgeStyle;rounded=0;orthogonalLoop=1;jettySize=auto;html=1;exitX=0.25;exitY=1;exitDx=0;exitDy=0;entryX=0.5;entryY=0;entryDx=0;entryDy=0;endArrow=blockThin;endFill=1;" parent="1" source="A9EnLsKWtSBPzANMAu5m-35" target="A9EnLsKWtSBPzANMAu5m-8" edge="1">
          <mxGeometry relative="1" as="geometry">
            <mxPoint x="499.96" y="120" as="sourcePoint" />
            <Array as="points">
              <mxPoint x="440" y="120" />
              <mxPoint x="440" y="140" />
              <mxPoint x="340" y="140" />
            </Array>
          </mxGeometry>
        </mxCell>
        <mxCell id="A9EnLsKWtSBPzANMAu5m-107" value="&lt;font style=&quot;font-size: 8px;&quot;&gt;16 b/c&lt;/font&gt;" style="edgeLabel;html=1;align=center;verticalAlign=middle;resizable=0;points=[];" parent="A9EnLsKWtSBPzANMAu5m-36" vertex="1" connectable="0">
          <mxGeometry x="-0.0209" y="2" relative="1" as="geometry">
            <mxPoint y="-4" as="offset" />
          </mxGeometry>
        </mxCell>
        <mxCell id="A9EnLsKWtSBPzANMAu5m-58" style="edgeStyle=orthogonalEdgeStyle;rounded=0;orthogonalLoop=1;jettySize=auto;html=1;exitX=0.75;exitY=1;exitDx=0;exitDy=0;entryX=0.5;entryY=0;entryDx=0;entryDy=0;" parent="1" source="A9EnLsKWtSBPzANMAu5m-35" target="A9EnLsKWtSBPzANMAu5m-56" edge="1">
          <mxGeometry relative="1" as="geometry">
            <Array as="points">
              <mxPoint x="480" y="120" />
              <mxPoint x="480" y="140" />
              <mxPoint x="620" y="140" />
            </Array>
          </mxGeometry>
        </mxCell>
        <mxCell id="A9EnLsKWtSBPzANMAu5m-123" value="&lt;font style=&quot;font-size: 8px;&quot;&gt;16 b/c&lt;/font&gt;" style="edgeLabel;html=1;align=center;verticalAlign=middle;resizable=0;points=[];" parent="A9EnLsKWtSBPzANMAu5m-58" vertex="1" connectable="0">
          <mxGeometry x="-0.2581" y="-2" relative="1" as="geometry">
            <mxPoint y="-4" as="offset" />
          </mxGeometry>
        </mxCell>
        <mxCell id="A9EnLsKWtSBPzANMAu5m-35" value="&lt;font style=&quot;line-height: 100%;&quot;&gt;&lt;b&gt;split_stream_fifo&lt;/b&gt;&lt;br&gt;&lt;i&gt;Split input stream into 2 identical streams&lt;/i&gt;&lt;/font&gt;" style="whiteSpace=wrap;html=1;noLabel=0;portConstraintRotation=0;snapToPoint=0;verticalAlign=top;textDirection=ltr;fontSize=8;spacingRight=2;spacingLeft=2;strokeColor=#7EA6E0;" parent="1" vertex="1">
          <mxGeometry x="400" y="80" width="120" height="40" as="geometry" />
        </mxCell>
        <mxCell id="A9EnLsKWtSBPzANMAu5m-39" value="&lt;b&gt;symbol_autocorrelator&lt;/b&gt;" style="text;html=1;align=left;verticalAlign=bottom;resizable=0;points=[];autosize=1;strokeColor=none;fillColor=none;fontSize=10;fontColor=light-dark(#A680B8,#EDEDED);" parent="1" vertex="1">
          <mxGeometry x="109.96000000000001" y="100" width="130" height="30" as="geometry" />
        </mxCell>
        <mxCell id="A9EnLsKWtSBPzANMAu5m-43" value="1" style="rounded=0;whiteSpace=wrap;html=1;fillColor=none;strokeColor=none;fontSize=8;fontColor=#EA6B66;align=right;" parent="1" vertex="1">
          <mxGeometry x="500" y="110" width="20" height="10" as="geometry" />
        </mxCell>
        <mxCell id="A9EnLsKWtSBPzANMAu5m-44" value="1" style="rounded=0;whiteSpace=wrap;html=1;fillColor=none;strokeColor=none;fontSize=8;fontColor=#EA6B66;align=right;" parent="1" vertex="1">
          <mxGeometry x="379.96" y="190" width="20" height="10" as="geometry" />
        </mxCell>
        <mxCell id="A9EnLsKWtSBPzANMAu5m-45" value="0" style="rounded=0;whiteSpace=wrap;html=1;fillColor=none;strokeColor=none;fontSize=8;fontColor=#EA6B66;align=right;" parent="1" vertex="1">
          <mxGeometry x="299.96" y="270" width="20" height="10" as="geometry" />
        </mxCell>
        <mxCell id="A9EnLsKWtSBPzANMAu5m-46" value="1" style="rounded=0;whiteSpace=wrap;html=1;fillColor=none;strokeColor=none;fontSize=8;fontColor=#EA6B66;align=right;" parent="1" vertex="1">
          <mxGeometry x="299.96" y="350" width="20" height="10" as="geometry" />
        </mxCell>
        <mxCell id="A9EnLsKWtSBPzANMAu5m-47" value="1" style="rounded=0;whiteSpace=wrap;html=1;fillColor=none;strokeColor=none;fontSize=8;fontColor=#EA6B66;align=right;" parent="1" vertex="1">
          <mxGeometry x="459.96" y="350" width="20" height="10" as="geometry" />
        </mxCell>
        <mxCell id="A9EnLsKWtSBPzANMAu5m-48" value="0" style="rounded=0;whiteSpace=wrap;html=1;fillColor=none;strokeColor=none;fontSize=8;fontColor=#EA6B66;align=right;" parent="1" vertex="1">
          <mxGeometry x="339.96" y="430" width="20" height="10" as="geometry" />
        </mxCell>
        <mxCell id="A9EnLsKWtSBPzANMAu5m-49" value="7" style="rounded=0;whiteSpace=wrap;html=1;fillColor=none;strokeColor=none;fontSize=8;fontColor=#EA6B66;align=right;" parent="1" vertex="1">
          <mxGeometry x="379.96" y="510" width="20" height="10" as="geometry" />
        </mxCell>
        <mxCell id="A9EnLsKWtSBPzANMAu5m-50" value="1" style="rounded=0;whiteSpace=wrap;html=1;fillColor=none;strokeColor=none;fontSize=8;fontColor=#EA6B66;align=right;" parent="1" vertex="1">
          <mxGeometry x="219.96" y="510" width="20" height="10" as="geometry" />
        </mxCell>
        <mxCell id="A9EnLsKWtSBPzANMAu5m-51" value="1" style="rounded=0;whiteSpace=wrap;html=1;fillColor=none;strokeColor=none;fontSize=8;fontColor=#EA6B66;align=right;" parent="1" vertex="1">
          <mxGeometry x="299.96" y="590" width="20" height="10" as="geometry" />
        </mxCell>
        <mxCell id="A9EnLsKWtSBPzANMAu5m-52" value="1" style="rounded=0;whiteSpace=wrap;html=1;fillColor=none;strokeColor=none;fontSize=8;fontColor=#EA6B66;align=right;" parent="1" vertex="1">
          <mxGeometry x="459.96" y="590" width="20" height="10" as="geometry" />
        </mxCell>
        <mxCell id="A9EnLsKWtSBPzANMAu5m-53" value="0" style="rounded=0;whiteSpace=wrap;html=1;fillColor=none;strokeColor=none;fontSize=8;fontColor=#EA6B66;align=right;" parent="1" vertex="1">
          <mxGeometry x="379.96" y="670" width="20" height="10" as="geometry" />
        </mxCell>
        <mxCell id="A9EnLsKWtSBPzANMAu5m-54" value="&lt;b&gt;10&lt;/b&gt;" style="rounded=0;whiteSpace=wrap;html=1;fillColor=none;strokeColor=none;fontSize=10;fontColor=#EA6B66;align=right;" parent="1" vertex="1">
          <mxGeometry x="457.96" y="700" width="30" height="20" as="geometry" />
        </mxCell>
        <mxCell id="A9EnLsKWtSBPzANMAu5m-60" style="edgeStyle=orthogonalEdgeStyle;rounded=0;orthogonalLoop=1;jettySize=auto;html=1;exitX=0.5;exitY=1;exitDx=0;exitDy=0;entryX=0.5;entryY=0;entryDx=0;entryDy=0;" parent="1" source="A9EnLsKWtSBPzANMAu5m-56" target="A9EnLsKWtSBPzANMAu5m-59" edge="1">
          <mxGeometry relative="1" as="geometry" />
        </mxCell>
        <mxCell id="A9EnLsKWtSBPzANMAu5m-124" value="&lt;font style=&quot;font-size: 8px;&quot;&gt;32 bits real&lt;/font&gt;" style="edgeLabel;html=1;align=center;verticalAlign=middle;resizable=0;points=[];" parent="A9EnLsKWtSBPzANMAu5m-60" vertex="1" connectable="0">
          <mxGeometry x="-0.0391" relative="1" as="geometry">
            <mxPoint as="offset" />
          </mxGeometry>
        </mxCell>
        <mxCell id="A9EnLsKWtSBPzANMAu5m-56" value="&lt;div&gt;&lt;b&gt;complex_magsq&lt;/b&gt;&lt;/div&gt;&lt;font style=&quot;line-height: 100%;&quot;&gt;&lt;i&gt;Compute the square magnitude of the complex signal&lt;/i&gt;&lt;/font&gt;" style="whiteSpace=wrap;html=1;noLabel=0;portConstraintRotation=0;snapToPoint=0;verticalAlign=top;textDirection=ltr;fontSize=8;spacingRight=2;spacingLeft=2;strokeColor=#97D077;" parent="1" vertex="1">
          <mxGeometry x="560" y="160" width="120" height="40" as="geometry" />
        </mxCell>
        <mxCell id="A9EnLsKWtSBPzANMAu5m-57" value="4" style="rounded=0;whiteSpace=wrap;html=1;fillColor=none;strokeColor=none;fontSize=8;fontColor=#EA6B66;align=right;" parent="1" vertex="1">
          <mxGeometry x="660" y="190" width="20" height="10" as="geometry" />
        </mxCell>
        <mxCell id="A9EnLsKWtSBPzANMAu5m-64" style="edgeStyle=orthogonalEdgeStyle;rounded=0;orthogonalLoop=1;jettySize=auto;html=1;exitX=0.5;exitY=1;exitDx=0;exitDy=0;entryX=0.5;entryY=0;entryDx=0;entryDy=0;" parent="1" source="A9EnLsKWtSBPzANMAu5m-59" target="A9EnLsKWtSBPzANMAu5m-62" edge="1">
          <mxGeometry relative="1" as="geometry" />
        </mxCell>
        <mxCell id="A9EnLsKWtSBPzANMAu5m-125" value="&lt;font style=&quot;font-size: 8px;&quot;&gt;32 + clog&lt;sub style=&quot;&quot;&gt;2&lt;/sub&gt;(K/2 + 1) b&lt;/font&gt;" style="edgeLabel;html=1;align=center;verticalAlign=middle;resizable=0;points=[];" parent="A9EnLsKWtSBPzANMAu5m-64" vertex="1" connectable="0">
          <mxGeometry x="-0.213" y="2" relative="1" as="geometry">
            <mxPoint as="offset" />
          </mxGeometry>
        </mxCell>
        <mxCell id="A9EnLsKWtSBPzANMAu5m-59" value="&lt;font style=&quot;line-height: 100%;&quot;&gt;&lt;b&gt;moving_sum&lt;/b&gt;&lt;/font&gt;&lt;div&gt;&lt;font style=&quot;line-height: 100%;&quot;&gt;&lt;i&gt;Moving sum over K/2 real samples&lt;/i&gt;&lt;/font&gt;&lt;/div&gt;" style="whiteSpace=wrap;html=1;noLabel=0;portConstraintRotation=0;snapToPoint=0;verticalAlign=top;textDirection=ltr;fontSize=8;spacingRight=2;spacingLeft=2;strokeColor=#97D077;" parent="1" vertex="1">
          <mxGeometry x="560" y="240" width="120" height="40" as="geometry" />
        </mxCell>
        <mxCell id="A9EnLsKWtSBPzANMAu5m-61" value="1" style="rounded=0;whiteSpace=wrap;html=1;fillColor=none;strokeColor=none;fontSize=8;fontColor=#EA6B66;align=right;" parent="1" vertex="1">
          <mxGeometry x="660" y="270" width="20" height="10" as="geometry" />
        </mxCell>
        <mxCell id="A9EnLsKWtSBPzANMAu5m-66" style="edgeStyle=orthogonalEdgeStyle;rounded=0;orthogonalLoop=1;jettySize=auto;html=1;exitX=0.5;exitY=1;exitDx=0;exitDy=0;endArrow=blockThin;endFill=1;" parent="1" source="A9EnLsKWtSBPzANMAu5m-62" edge="1">
          <mxGeometry relative="1" as="geometry">
            <mxPoint x="620" y="440" as="targetPoint" />
          </mxGeometry>
        </mxCell>
        <mxCell id="A9EnLsKWtSBPzANMAu5m-126" value="&lt;font style=&quot;font-size: 8px;&quot;&gt;16 b&lt;/font&gt;" style="edgeLabel;html=1;align=center;verticalAlign=middle;resizable=0;points=[];" parent="A9EnLsKWtSBPzANMAu5m-66" vertex="1" connectable="0">
          <mxGeometry x="-0.3172" y="1" relative="1" as="geometry">
            <mxPoint as="offset" />
          </mxGeometry>
        </mxCell>
        <mxCell id="A9EnLsKWtSBPzANMAu5m-62" value="&lt;font style=&quot;line-height: 100%;&quot;&gt;&lt;b&gt;real_trunc&lt;/b&gt;&lt;br&gt;&lt;i&gt;Truncate the result back on &lt;br&gt;16 bits numbers / component&lt;/i&gt;&lt;/font&gt;" style="whiteSpace=wrap;html=1;noLabel=0;portConstraintRotation=0;snapToPoint=0;verticalAlign=top;textDirection=ltr;fontSize=8;spacingRight=2;spacingLeft=2;strokeColor=#7EA6E0;" parent="1" vertex="1">
          <mxGeometry x="560" y="320" width="120" height="40" as="geometry" />
        </mxCell>
        <mxCell id="A9EnLsKWtSBPzANMAu5m-68" value="&lt;b&gt;symbol_energy&lt;/b&gt;" style="text;html=1;align=right;verticalAlign=bottom;resizable=0;points=[];autosize=1;strokeColor=none;fillColor=none;fontSize=10;fontColor=light-dark(#FFB570,#EDEDED);" parent="1" vertex="1">
          <mxGeometry x="590" y="100" width="100" height="30" as="geometry" />
        </mxCell>
        <mxCell id="A9EnLsKWtSBPzANMAu5m-69" value="0" style="rounded=0;whiteSpace=wrap;html=1;fillColor=none;strokeColor=none;fontSize=8;fontColor=#EA6B66;align=right;" parent="1" vertex="1">
          <mxGeometry x="660" y="350" width="20" height="10" as="geometry" />
        </mxCell>
        <mxCell id="A9EnLsKWtSBPzANMAu5m-70" value="&lt;b&gt;5&lt;/b&gt;" style="rounded=0;whiteSpace=wrap;html=1;fillColor=none;strokeColor=none;fontSize=10;fontColor=#EA6B66;align=right;" parent="1" vertex="1">
          <mxGeometry x="658" y="380" width="30" height="20" as="geometry" />
        </mxCell>
        <mxCell id="A9EnLsKWtSBPzANMAu5m-84" style="edgeStyle=orthogonalEdgeStyle;rounded=0;orthogonalLoop=1;jettySize=auto;html=1;exitX=0.5;exitY=1;exitDx=0;exitDy=0;endArrow=blockThin;endFill=1;" parent="1" source="A9EnLsKWtSBPzANMAu5m-71" target="A9EnLsKWtSBPzANMAu5m-82" edge="1">
          <mxGeometry relative="1" as="geometry" />
        </mxCell>
        <mxCell id="A9EnLsKWtSBPzANMAu5m-122" value="&lt;font style=&quot;font-size: 8px;&quot;&gt;32 bits real&lt;/font&gt;" style="edgeLabel;html=1;align=center;verticalAlign=middle;resizable=0;points=[];" parent="A9EnLsKWtSBPzANMAu5m-84" vertex="1" connectable="0">
          <mxGeometry x="-0.0391" y="1" relative="1" as="geometry">
            <mxPoint as="offset" />
          </mxGeometry>
        </mxCell>
        <mxCell id="A9EnLsKWtSBPzANMAu5m-71" value="&lt;font style=&quot;line-height: 100%;&quot;&gt;&lt;b&gt;p_squared&lt;/b&gt;&lt;br&gt;&lt;i&gt;Compute the square magnitude of the complex signal&lt;/i&gt;&lt;/font&gt;" style="whiteSpace=wrap;html=1;noLabel=0;portConstraintRotation=0;snapToPoint=0;verticalAlign=top;textDirection=ltr;fontSize=8;spacingRight=2;spacingLeft=2;strokeColor=#97D077;" parent="1" vertex="1">
          <mxGeometry x="279.96000000000004" y="760" width="120" height="40" as="geometry" />
        </mxCell>
        <mxCell id="A9EnLsKWtSBPzANMAu5m-72" value="4" style="rounded=0;whiteSpace=wrap;html=1;fillColor=none;strokeColor=none;fontSize=8;fontColor=#EA6B66;align=right;" parent="1" vertex="1">
          <mxGeometry x="379.96" y="790" width="20" height="10" as="geometry" />
        </mxCell>
        <mxCell id="A9EnLsKWtSBPzANMAu5m-76" style="edgeStyle=orthogonalEdgeStyle;rounded=0;orthogonalLoop=1;jettySize=auto;html=1;exitX=0.25;exitY=1;exitDx=0;exitDy=0;entryX=0.341;entryY=-0.02;entryDx=0;entryDy=0;endArrow=blockThin;endFill=1;entryPerimeter=0;" parent="1" source="A9EnLsKWtSBPzANMAu5m-73" target="A9EnLsKWtSBPzANMAu5m-75" edge="1">
          <mxGeometry relative="1" as="geometry">
            <Array as="points">
              <mxPoint x="600" y="480" />
              <mxPoint x="600" y="519" />
            </Array>
          </mxGeometry>
        </mxCell>
        <mxCell id="A9EnLsKWtSBPzANMAu5m-127" value="&lt;font style=&quot;font-size: 8px;&quot;&gt;16 b&lt;/font&gt;" style="edgeLabel;html=1;align=center;verticalAlign=middle;resizable=0;points=[];" parent="A9EnLsKWtSBPzANMAu5m-76" vertex="1" connectable="0">
          <mxGeometry x="0.1655" relative="1" as="geometry">
            <mxPoint y="-1" as="offset" />
          </mxGeometry>
        </mxCell>
        <mxCell id="A9EnLsKWtSBPzANMAu5m-77" style="edgeStyle=orthogonalEdgeStyle;rounded=0;orthogonalLoop=1;jettySize=auto;html=1;exitX=0.75;exitY=1;exitDx=0;exitDy=0;entryX=0.674;entryY=-0.02;entryDx=0;entryDy=0;endArrow=blockThin;endFill=1;entryPerimeter=0;" parent="1" source="A9EnLsKWtSBPzANMAu5m-73" target="A9EnLsKWtSBPzANMAu5m-75" edge="1">
          <mxGeometry relative="1" as="geometry">
            <Array as="points">
              <mxPoint x="640" y="480" />
              <mxPoint x="640" y="519" />
            </Array>
          </mxGeometry>
        </mxCell>
        <mxCell id="A9EnLsKWtSBPzANMAu5m-128" value="&lt;font style=&quot;font-size: 8px;&quot;&gt;16 b&lt;/font&gt;" style="edgeLabel;html=1;align=center;verticalAlign=middle;resizable=0;points=[];" parent="A9EnLsKWtSBPzANMAu5m-77" vertex="1" connectable="0">
          <mxGeometry x="0.0796" relative="1" as="geometry">
            <mxPoint y="1" as="offset" />
          </mxGeometry>
        </mxCell>
        <mxCell id="A9EnLsKWtSBPzANMAu5m-73" value="&lt;font style=&quot;line-height: 100%;&quot;&gt;&lt;b&gt;split_stream_fifo&lt;/b&gt;&lt;br&gt;&lt;i&gt;Split input stream into 2 identical streams&lt;/i&gt;&lt;/font&gt;" style="whiteSpace=wrap;html=1;noLabel=0;portConstraintRotation=0;snapToPoint=0;verticalAlign=top;textDirection=ltr;fontSize=8;spacingRight=2;spacingLeft=2;strokeColor=#7EA6E0;" parent="1" vertex="1">
          <mxGeometry x="560" y="440" width="120" height="40" as="geometry" />
        </mxCell>
        <mxCell id="A9EnLsKWtSBPzANMAu5m-74" value="1" style="rounded=0;whiteSpace=wrap;html=1;fillColor=none;strokeColor=none;fontSize=8;fontColor=#EA6B66;align=right;" parent="1" vertex="1">
          <mxGeometry x="660" y="470" width="20" height="10" as="geometry" />
        </mxCell>
        <mxCell id="A9EnLsKWtSBPzANMAu5m-80" style="edgeStyle=orthogonalEdgeStyle;rounded=0;orthogonalLoop=1;jettySize=auto;html=1;exitX=0.5;exitY=1;exitDx=0;exitDy=0;entryX=0.5;entryY=0;entryDx=0;entryDy=0;endArrow=blockThin;endFill=1;" parent="1" source="A9EnLsKWtSBPzANMAu5m-75" target="A9EnLsKWtSBPzANMAu5m-79" edge="1">
          <mxGeometry relative="1" as="geometry" />
        </mxCell>
        <mxCell id="A9EnLsKWtSBPzANMAu5m-129" value="&lt;font style=&quot;font-size: 8px;&quot;&gt;32 b&lt;/font&gt;" style="edgeLabel;html=1;align=center;verticalAlign=middle;resizable=0;points=[];" parent="A9EnLsKWtSBPzANMAu5m-80" vertex="1" connectable="0">
          <mxGeometry x="-0.1478" y="-1" relative="1" as="geometry">
            <mxPoint as="offset" />
          </mxGeometry>
        </mxCell>
        <mxCell id="A9EnLsKWtSBPzANMAu5m-75" value="&lt;font style=&quot;line-height: 100%;&quot;&gt;&lt;b&gt;mult&lt;/b&gt;&lt;br&gt;&lt;i&gt;Multiply the two streams (Square function here)&lt;/i&gt;&lt;/font&gt;" style="whiteSpace=wrap;html=1;noLabel=0;portConstraintRotation=0;snapToPoint=0;verticalAlign=top;textDirection=ltr;fontSize=8;spacingRight=2;spacingLeft=2;strokeColor=#97D077;" parent="1" vertex="1">
          <mxGeometry x="560" y="520" width="120" height="40" as="geometry" />
        </mxCell>
        <mxCell id="A9EnLsKWtSBPzANMAu5m-78" value="3" style="rounded=0;whiteSpace=wrap;html=1;fillColor=none;strokeColor=none;fontSize=8;fontColor=#EA6B66;align=right;" parent="1" vertex="1">
          <mxGeometry x="660" y="550" width="20" height="10" as="geometry" />
        </mxCell>
        <mxCell id="A9EnLsKWtSBPzANMAu5m-88" style="edgeStyle=orthogonalEdgeStyle;rounded=0;orthogonalLoop=1;jettySize=auto;html=1;exitX=0.5;exitY=1;exitDx=0;exitDy=0;entryX=0.5;entryY=0;entryDx=0;entryDy=0;endArrow=blockThin;endFill=1;" parent="1" source="A9EnLsKWtSBPzANMAu5m-79" target="A9EnLsKWtSBPzANMAu5m-87" edge="1">
          <mxGeometry relative="1" as="geometry" />
        </mxCell>
        <mxCell id="A9EnLsKWtSBPzANMAu5m-137" value="&lt;font style=&quot;font-size: 8px;&quot;&gt;32 b&lt;/font&gt;" style="edgeLabel;html=1;align=center;verticalAlign=middle;resizable=0;points=[];" parent="A9EnLsKWtSBPzANMAu5m-88" vertex="1" connectable="0">
          <mxGeometry x="-0.0426" relative="1" as="geometry">
            <mxPoint as="offset" />
          </mxGeometry>
        </mxCell>
        <mxCell id="A9EnLsKWtSBPzANMAu5m-79" value="&lt;font style=&quot;line-height: 100%;&quot;&gt;&lt;b&gt;axi_latency&lt;/b&gt;&lt;br&gt;&lt;i&gt;Introduce a 5 symbols latency&amp;nbsp;&lt;br&gt;&lt;/i&gt;&lt;i&gt;(Syncronize streams)&lt;/i&gt;&lt;i&gt;&lt;/i&gt;&lt;/font&gt;" style="whiteSpace=wrap;html=1;noLabel=0;portConstraintRotation=0;snapToPoint=0;verticalAlign=top;textDirection=ltr;fontSize=8;spacingRight=2;spacingLeft=2;strokeColor=#7EA6E0;" parent="1" vertex="1">
          <mxGeometry x="560" y="600" width="120" height="40" as="geometry" />
        </mxCell>
        <mxCell id="A9EnLsKWtSBPzANMAu5m-81" value="5" style="rounded=0;whiteSpace=wrap;html=1;fillColor=none;strokeColor=none;fontSize=8;fontColor=#EA6B66;align=right;" parent="1" vertex="1">
          <mxGeometry x="660" y="630" width="20" height="10" as="geometry" />
        </mxCell>
        <mxCell id="A9EnLsKWtSBPzANMAu5m-82" value="&lt;div&gt;&lt;b&gt;axi_fifo_short&lt;/b&gt;&lt;/div&gt;&lt;i&gt;Introduce a fifo buffer&amp;nbsp;&lt;/i&gt;&lt;div&gt;&lt;i&gt;(+ multiply signal by 2&lt;sup&gt;12&lt;/sup&gt;)&lt;/i&gt;&lt;/div&gt;" style="whiteSpace=wrap;html=1;noLabel=0;portConstraintRotation=0;snapToPoint=0;verticalAlign=top;textDirection=ltr;fontSize=8;spacingRight=2;spacingLeft=2;strokeColor=#7EA6E0;" parent="1" vertex="1">
          <mxGeometry x="279.96000000000004" y="840" width="120" height="40" as="geometry" />
        </mxCell>
        <mxCell id="A9EnLsKWtSBPzANMAu5m-83" value="1" style="rounded=0;whiteSpace=wrap;html=1;fillColor=none;strokeColor=none;fontSize=8;fontColor=#EA6B66;align=right;" parent="1" vertex="1">
          <mxGeometry x="379.96" y="870" width="20" height="10" as="geometry" />
        </mxCell>
        <mxCell id="A9EnLsKWtSBPzANMAu5m-92" style="edgeStyle=orthogonalEdgeStyle;rounded=0;orthogonalLoop=1;jettySize=auto;html=1;exitX=0.5;exitY=1;exitDx=0;exitDy=0;entryX=0.75;entryY=0;entryDx=0;entryDy=0;endArrow=blockThin;endFill=1;" parent="1" source="A9EnLsKWtSBPzANMAu5m-87" target="A9EnLsKWtSBPzANMAu5m-90" edge="1">
          <mxGeometry relative="1" as="geometry" />
        </mxCell>
        <mxCell id="A9EnLsKWtSBPzANMAu5m-139" value="&lt;font style=&quot;font-size: 8px;&quot;&gt;32 b&lt;/font&gt;" style="edgeLabel;html=1;align=center;verticalAlign=middle;resizable=0;points=[];" parent="A9EnLsKWtSBPzANMAu5m-92" vertex="1" connectable="0">
          <mxGeometry x="-0.0338" y="1" relative="1" as="geometry">
            <mxPoint y="-3" as="offset" />
          </mxGeometry>
        </mxCell>
        <mxCell id="A9EnLsKWtSBPzANMAu5m-87" value="&lt;div&gt;&lt;b&gt;safe_divisor&lt;/b&gt;&lt;/div&gt;&lt;i&gt;Avoid dividing by 0 by set this signal to 1 if it is at 0 (+ buffer)&lt;/i&gt;" style="whiteSpace=wrap;html=1;noLabel=0;portConstraintRotation=0;snapToPoint=0;verticalAlign=top;textDirection=ltr;fontSize=8;spacingRight=2;spacingLeft=2;strokeColor=#7EA6E0;" parent="1" vertex="1">
          <mxGeometry x="560" y="840" width="120" height="40" as="geometry" />
        </mxCell>
        <mxCell id="A9EnLsKWtSBPzANMAu5m-89" value="1" style="rounded=0;whiteSpace=wrap;html=1;fillColor=none;strokeColor=none;fontSize=8;fontColor=#EA6B66;align=right;" parent="1" vertex="1">
          <mxGeometry x="660" y="870" width="20" height="10" as="geometry" />
        </mxCell>
        <mxCell id="A9EnLsKWtSBPzANMAu5m-95" style="edgeStyle=orthogonalEdgeStyle;rounded=0;orthogonalLoop=1;jettySize=auto;html=1;exitX=0.5;exitY=1;exitDx=0;exitDy=0;entryX=0.5;entryY=0;entryDx=0;entryDy=0;endArrow=blockThin;endFill=1;" parent="1" source="A9EnLsKWtSBPzANMAu5m-90" target="A9EnLsKWtSBPzANMAu5m-94" edge="1">
          <mxGeometry relative="1" as="geometry" />
        </mxCell>
        <mxCell id="A9EnLsKWtSBPzANMAu5m-140" value="&lt;font style=&quot;font-size: 8px;&quot;&gt;32 bits quotient&lt;/font&gt;" style="edgeLabel;html=1;align=center;verticalAlign=middle;resizable=0;points=[];" parent="A9EnLsKWtSBPzANMAu5m-95" vertex="1" connectable="0">
          <mxGeometry x="0.0478" y="1" relative="1" as="geometry">
            <mxPoint y="-4" as="offset" />
          </mxGeometry>
        </mxCell>
        <mxCell id="A9EnLsKWtSBPzANMAu5m-90" value="&lt;font style=&quot;line-height: 100%;&quot;&gt;&lt;b&gt;divide_int32&lt;/b&gt;&lt;br&gt;&lt;i&gt;Divide the two input values (integer divison)&lt;/i&gt;&lt;/font&gt;" style="whiteSpace=wrap;html=1;noLabel=0;portConstraintRotation=0;snapToPoint=0;verticalAlign=top;textDirection=ltr;fontSize=8;spacingRight=2;spacingLeft=2;strokeColor=#97D077;" parent="1" vertex="1">
          <mxGeometry x="400" y="920" width="120" height="40" as="geometry" />
        </mxCell>
        <mxCell id="A9EnLsKWtSBPzANMAu5m-91" style="edgeStyle=orthogonalEdgeStyle;rounded=0;orthogonalLoop=1;jettySize=auto;html=1;exitX=0.5;exitY=1;exitDx=0;exitDy=0;entryX=0.25;entryY=0;entryDx=0;entryDy=0;endArrow=blockThin;endFill=1;" parent="1" source="A9EnLsKWtSBPzANMAu5m-82" target="A9EnLsKWtSBPzANMAu5m-90" edge="1">
          <mxGeometry relative="1" as="geometry">
            <mxPoint x="430" y="910" as="targetPoint" />
          </mxGeometry>
        </mxCell>
        <mxCell id="A9EnLsKWtSBPzANMAu5m-138" value="&lt;font style=&quot;font-size: 8px;&quot;&gt;32 b&lt;/font&gt;" style="edgeLabel;html=1;align=center;verticalAlign=middle;resizable=0;points=[];" parent="A9EnLsKWtSBPzANMAu5m-91" vertex="1" connectable="0">
          <mxGeometry x="0.4054" y="2" relative="1" as="geometry">
            <mxPoint x="-24" as="offset" />
          </mxGeometry>
        </mxCell>
        <mxCell id="A9EnLsKWtSBPzANMAu5m-93" value="71&lt;span style=&quot;color: rgba(0, 0, 0, 0); font-family: monospace; font-size: 0px; text-align: start; text-wrap-mode: nowrap;&quot;&gt;%3CmxGraphModel%3E%3Croot%3E%3CmxCell%20id%3D%220%22%2F%3E%3CmxCell%20id%3D%221%22%20parent%3D%220%22%2F%3E%3CmxCell%20id%3D%222%22%20value%3D%22%26lt%3Bfont%20style%3D%26quot%3Bline-height%3A%20100%25%3B%26quot%3B%26gt%3B%26lt%3Bb%26gt%3Baxi_latency%26lt%3B%2Fb%26gt%3B%26lt%3Bbr%26gt%3B%26lt%3Bi%26gt%3BIntroduce%20a%208%20symbols%20latency%26lt%3Bbr%26gt%3B(Syncronize%20streams)%26lt%3B%2Fi%26gt%3B%26lt%3B%2Ffont%26gt%3B%22%20style%3D%22whiteSpace%3Dwrap%3Bhtml%3D1%3BnoLabel%3D0%3BportConstraintRotation%3D0%3BsnapToPoint%3D0%3BverticalAlign%3Dtop%3BtextDirection%3Dltr%3BfontSize%3D8%3BspacingRight%3D2%3BspacingLeft%3D2%3BstrokeColor%3D%237EA6E0%3B%22%20vertex%3D%221%22%20parent%3D%221%22%3E%3CmxGeometry%20x%3D%2240%22%20y%3D%22480%22%20width%3D%22120%22%20height%3D%2240%22%20as%3D%22geometry%22%2F%3E%3C%2FmxCell%3E%3C%2Froot%3E%3C%2FmxGraphModel%3E&lt;/span&gt;" style="rounded=0;whiteSpace=wrap;html=1;fillColor=none;strokeColor=none;fontSize=8;fontColor=#EA6B66;align=right;" parent="1" vertex="1">
          <mxGeometry x="500" y="950" width="20" height="10" as="geometry" />
        </mxCell>
        <mxCell id="A9EnLsKWtSBPzANMAu5m-100" style="edgeStyle=orthogonalEdgeStyle;rounded=0;orthogonalLoop=1;jettySize=auto;html=1;exitX=0.5;exitY=1;exitDx=0;exitDy=0;endArrow=blockThin;endFill=1;" parent="1" source="A9EnLsKWtSBPzANMAu5m-94" edge="1">
          <mxGeometry relative="1" as="geometry">
            <mxPoint x="460" y="1120" as="targetPoint" />
            <Array as="points">
              <mxPoint x="460" y="1070" />
              <mxPoint x="460" y="1070" />
            </Array>
          </mxGeometry>
        </mxCell>
        <mxCell id="A9EnLsKWtSBPzANMAu5m-144" value="&lt;font style=&quot;font-size: 8px;&quot;&gt;32 + clog&lt;sub style=&quot;&quot;&gt;2&lt;/sub&gt;(CP) b&lt;/font&gt;" style="edgeLabel;html=1;align=center;verticalAlign=middle;resizable=0;points=[];" parent="A9EnLsKWtSBPzANMAu5m-100" vertex="1" connectable="0">
          <mxGeometry x="0.4152" relative="1" as="geometry">
            <mxPoint as="offset" />
          </mxGeometry>
        </mxCell>
        <mxCell id="A9EnLsKWtSBPzANMAu5m-94" value="&lt;font style=&quot;line-height: 100%;&quot;&gt;&lt;b&gt;moving_sum&lt;/b&gt;&lt;/font&gt;&lt;div&gt;&lt;font style=&quot;line-height: 100%;&quot;&gt;&lt;i&gt;Moving sum over CP samples to average the metric&lt;/i&gt;&lt;/font&gt;&lt;/div&gt;" style="whiteSpace=wrap;html=1;noLabel=0;portConstraintRotation=0;snapToPoint=0;verticalAlign=top;textDirection=ltr;fontSize=8;spacingRight=2;spacingLeft=2;strokeColor=#97D077;" parent="1" vertex="1">
          <mxGeometry x="400" y="1000" width="120" height="40" as="geometry" />
        </mxCell>
        <mxCell id="A9EnLsKWtSBPzANMAu5m-96" value="1" style="rounded=0;whiteSpace=wrap;html=1;fillColor=none;strokeColor=none;fontSize=8;fontColor=#EA6B66;align=right;" parent="1" vertex="1">
          <mxGeometry x="500" y="1030" width="20" height="10" as="geometry" />
        </mxCell>
        <mxCell id="A9EnLsKWtSBPzANMAu5m-99" style="edgeStyle=orthogonalEdgeStyle;rounded=0;orthogonalLoop=1;jettySize=auto;html=1;exitX=0.5;exitY=1;exitDx=0;exitDy=0;endArrow=blockThin;endFill=1;" parent="1" source="A9EnLsKWtSBPzANMAu5m-97" edge="1">
          <mxGeometry relative="1" as="geometry">
            <mxPoint x="180" y="1120" as="targetPoint" />
            <Array as="points">
              <mxPoint x="179.96" y="1080" />
            </Array>
          </mxGeometry>
        </mxCell>
        <mxCell id="A9EnLsKWtSBPzANMAu5m-143" value="&lt;font style=&quot;font-size: 8px;&quot;&gt;32 b/c&lt;/font&gt;" style="edgeLabel;html=1;align=center;verticalAlign=middle;resizable=0;points=[];" parent="A9EnLsKWtSBPzANMAu5m-99" vertex="1" connectable="0">
          <mxGeometry x="0.3717" y="-2" relative="1" as="geometry">
            <mxPoint x="1" as="offset" />
          </mxGeometry>
        </mxCell>
        <mxCell id="A9EnLsKWtSBPzANMAu5m-97" value="&lt;font style=&quot;line-height: 100%;&quot;&gt;&lt;b&gt;axi_latency&lt;/b&gt;&lt;br&gt;&lt;i&gt;Introduce a 8 symbols latency&lt;br&gt;(Syncronize streams)&lt;/i&gt;&lt;/font&gt;" style="whiteSpace=wrap;html=1;noLabel=0;portConstraintRotation=0;snapToPoint=0;verticalAlign=top;textDirection=ltr;fontSize=8;spacingRight=2;spacingLeft=2;strokeColor=#7EA6E0;" parent="1" vertex="1">
          <mxGeometry x="119.96000000000001" y="1000" width="120" height="40" as="geometry" />
        </mxCell>
        <mxCell id="A9EnLsKWtSBPzANMAu5m-98" value="77" style="rounded=0;whiteSpace=wrap;html=1;fillColor=none;strokeColor=none;fontSize=8;fontColor=#EA6B66;align=right;" parent="1" vertex="1">
          <mxGeometry x="219.96" y="1030" width="20" height="10" as="geometry" />
        </mxCell>
        <mxCell id="A9EnLsKWtSBPzANMAu5m-101" style="edgeStyle=orthogonalEdgeStyle;rounded=0;orthogonalLoop=1;jettySize=auto;html=1;entryX=0.5;entryY=0;entryDx=0;entryDy=0;endArrow=blockThin;endFill=1;exitX=0.524;exitY=1.091;exitDx=0;exitDy=0;exitPerimeter=0;" parent="1" target="A9EnLsKWtSBPzANMAu5m-35" edge="1">
          <mxGeometry relative="1" as="geometry">
            <mxPoint x="459.9999999999998" y="42.73000000000002" as="sourcePoint" />
          </mxGeometry>
        </mxCell>
        <mxCell id="A9EnLsKWtSBPzANMAu5m-106" value="16 bits / components imaginary" style="edgeLabel;html=1;align=center;verticalAlign=middle;resizable=0;points=[];fontSize=8;" parent="A9EnLsKWtSBPzANMAu5m-101" vertex="1" connectable="0">
          <mxGeometry x="0.2347" relative="1" as="geometry">
            <mxPoint y="-11" as="offset" />
          </mxGeometry>
        </mxCell>
        <mxCell id="A9EnLsKWtSBPzANMAu5m-103" value="&lt;b&gt;metric_calculator&lt;/b&gt;" style="text;html=1;align=left;verticalAlign=bottom;resizable=0;points=[];autosize=1;strokeColor=none;fillColor=none;fontSize=10;fontColor=light-dark(#67AB9F,#EDEDED);" parent="1" vertex="1">
          <mxGeometry x="89.96000000000001" y="30" width="110" height="30" as="geometry" />
        </mxCell>
        <mxCell id="A9EnLsKWtSBPzANMAu5m-146" value="&lt;b&gt;detector&lt;/b&gt;" style="text;html=1;align=left;verticalAlign=bottom;resizable=0;points=[];autosize=1;strokeColor=none;fillColor=none;fontSize=10;fontColor=light-dark(#EA6B66,#EDEDED);" parent="1" vertex="1">
          <mxGeometry x="40" y="1210" width="60" height="30" as="geometry" />
        </mxCell>
        <mxCell id="A9EnLsKWtSBPzANMAu5m-148" value="" style="curved=1;endArrow=none;html=1;rounded=0;exitX=0.048;exitY=0.15;exitDx=0;exitDy=0;exitPerimeter=0;startFill=0;entryX=0.929;entryY=0.15;entryDx=0;entryDy=0;entryPerimeter=0;fillColor=#f8cecc;strokeColor=#b85450;" parent="1" edge="1">
          <mxGeometry width="50" height="50" relative="1" as="geometry">
            <mxPoint x="119.46" y="1550" as="sourcePoint" />
            <mxPoint x="679.48" y="1550" as="targetPoint" />
            <Array as="points">
              <mxPoint x="175.70000000000002" y="1550" />
              <mxPoint x="265.7" y="1550" />
              <mxPoint x="345.7" y="1430" />
              <mxPoint x="375.7" y="1550" />
              <mxPoint x="425.7" y="1550" />
              <mxPoint x="495.7" y="1550" />
            </Array>
          </mxGeometry>
        </mxCell>
        <mxCell id="yB-q2PVRav_EBHRm1ZwY-17" value="&lt;font style=&quot;font-size: 8px;&quot;&gt;N(d) = moving_sum(M(d))&lt;/font&gt;" style="edgeLabel;html=1;align=center;verticalAlign=middle;resizable=0;points=[];" vertex="1" connectable="0" parent="A9EnLsKWtSBPzANMAu5m-148">
          <mxGeometry x="0.9586" y="1" relative="1" as="geometry">
            <mxPoint x="-35" as="offset" />
          </mxGeometry>
        </mxCell>
        <mxCell id="A9EnLsKWtSBPzANMAu5m-158" value="" style="rounded=0;whiteSpace=wrap;html=1;fillColor=none;" parent="1" vertex="1">
          <mxGeometry x="339.47" y="1320" width="220.04" height="20" as="geometry" />
        </mxCell>
        <mxCell id="A9EnLsKWtSBPzANMAu5m-162" value="" style="endArrow=none;html=1;rounded=0;entryX=0.25;entryY=0;entryDx=0;entryDy=0;exitX=0.25;exitY=1;exitDx=0;exitDy=0;" parent="1" edge="1">
          <mxGeometry width="50" height="50" relative="1" as="geometry">
            <mxPoint x="389.29" y="1340" as="sourcePoint" />
            <mxPoint x="389.29" y="1320" as="targetPoint" />
            <Array as="points" />
          </mxGeometry>
        </mxCell>
        <mxCell id="A9EnLsKWtSBPzANMAu5m-164" value="" style="endArrow=none;html=1;rounded=0;entryX=0.25;entryY=0;entryDx=0;entryDy=0;exitX=0.25;exitY=1;exitDx=0;exitDy=0;" parent="1" edge="1">
          <mxGeometry width="50" height="50" relative="1" as="geometry">
            <mxPoint x="169.47" y="1340" as="sourcePoint" />
            <mxPoint x="169.47" y="1320" as="targetPoint" />
            <Array as="points" />
          </mxGeometry>
        </mxCell>
        <mxCell id="yB-q2PVRav_EBHRm1ZwY-1" value="" style="rounded=0;whiteSpace=wrap;html=1;strokeColor=none;fillColor=none;" vertex="1" parent="1">
          <mxGeometry x="559.51" y="1320" width="119.96" height="20" as="geometry" />
        </mxCell>
        <mxCell id="yB-q2PVRav_EBHRm1ZwY-2" value="" style="endArrow=none;html=1;rounded=0;entryX=0.25;entryY=0;entryDx=0;entryDy=0;exitX=0.25;exitY=1;exitDx=0;exitDy=0;" edge="1" parent="1">
          <mxGeometry width="50" height="50" relative="1" as="geometry">
            <mxPoint x="559.2" y="1340" as="sourcePoint" />
            <mxPoint x="559.2" y="1320" as="targetPoint" />
            <Array as="points" />
          </mxGeometry>
        </mxCell>
        <mxCell id="yB-q2PVRav_EBHRm1ZwY-3" value="" style="endArrow=none;html=1;rounded=0;entryX=0;entryY=0;entryDx=0;entryDy=0;exitX=1;exitY=0;exitDx=0;exitDy=0;" edge="1" parent="1" source="yB-q2PVRav_EBHRm1ZwY-1" target="yB-q2PVRav_EBHRm1ZwY-1">
          <mxGeometry width="50" height="50" relative="1" as="geometry">
            <mxPoint x="569.2" y="1350" as="sourcePoint" />
            <mxPoint x="569.2" y="1330" as="targetPoint" />
            <Array as="points" />
          </mxGeometry>
        </mxCell>
        <mxCell id="yB-q2PVRav_EBHRm1ZwY-4" value="" style="endArrow=none;html=1;rounded=0;entryX=0;entryY=0;entryDx=0;entryDy=0;exitX=1;exitY=0;exitDx=0;exitDy=0;" edge="1" parent="1">
          <mxGeometry width="50" height="50" relative="1" as="geometry">
            <mxPoint x="679.51" y="1340" as="sourcePoint" />
            <mxPoint x="559.51" y="1340" as="targetPoint" />
            <Array as="points" />
          </mxGeometry>
        </mxCell>
        <mxCell id="yB-q2PVRav_EBHRm1ZwY-12" value="" style="curved=1;endArrow=none;html=1;rounded=0;startFill=0;fillColor=#dae8fc;strokeColor=#6c8ebf;" edge="1" parent="1">
          <mxGeometry width="50" height="50" relative="1" as="geometry">
            <mxPoint x="119.42999999999999" y="1450" as="sourcePoint" />
            <mxPoint x="679.47" y="1450" as="targetPoint" />
            <Array as="points">
              <mxPoint x="145.67000000000002" y="1450" />
              <mxPoint x="239.44" y="1360" />
              <mxPoint x="309.44" y="1360" />
              <mxPoint x="339.44" y="1360" />
              <mxPoint x="359.47" y="1410" />
              <mxPoint x="395.66999999999996" y="1450" />
              <mxPoint x="465.66999999999996" y="1450" />
            </Array>
          </mxGeometry>
        </mxCell>
        <mxCell id="yB-q2PVRav_EBHRm1ZwY-16" value="&lt;font style=&quot;font-size: 8px;&quot;&gt;M(d)&lt;/font&gt;" style="edgeLabel;html=1;align=center;verticalAlign=middle;resizable=0;points=[];" vertex="1" connectable="0" parent="yB-q2PVRav_EBHRm1ZwY-12">
          <mxGeometry x="0.8739" y="1" relative="1" as="geometry">
            <mxPoint x="28" as="offset" />
          </mxGeometry>
        </mxCell>
        <mxCell id="yB-q2PVRav_EBHRm1ZwY-18" value="" style="endArrow=none;dashed=1;html=1;rounded=0;entryX=1;entryY=1;entryDx=0;entryDy=0;fillColor=#d5e8d4;strokeColor=#82b366;" edge="1" parent="1" target="A9EnLsKWtSBPzANMAu5m-155">
          <mxGeometry width="50" height="50" relative="1" as="geometry">
            <mxPoint x="340" y="1640" as="sourcePoint" />
            <mxPoint x="349.47" y="1420" as="targetPoint" />
          </mxGeometry>
        </mxCell>
        <mxCell id="yB-q2PVRav_EBHRm1ZwY-20" value="" style="endArrow=none;dashed=1;html=1;rounded=0;fillColor=#fff2cc;strokeColor=#d6b656;dashPattern=12 12;" edge="1" parent="1">
          <mxGeometry width="50" height="50" relative="1" as="geometry">
            <mxPoint x="680.0014285714286" y="1510" as="sourcePoint" />
            <mxPoint x="118.92999999999999" y="1510" as="targetPoint" />
          </mxGeometry>
        </mxCell>
        <mxCell id="yB-q2PVRav_EBHRm1ZwY-21" value="CP" style="rounded=0;whiteSpace=wrap;html=1;strokeColor=none;fontSize=8;" vertex="1" parent="1">
          <mxGeometry x="219.96" y="1280" width="50.04" height="20" as="geometry" />
        </mxCell>
        <mxCell id="yB-q2PVRav_EBHRm1ZwY-22" value="Schmidl &amp;amp; Cox preamble" style="rounded=0;whiteSpace=wrap;html=1;strokeColor=none;fontSize=8;" vertex="1" parent="1">
          <mxGeometry x="270" y="1280" width="170" height="20" as="geometry" />
        </mxCell>
        <mxCell id="yB-q2PVRav_EBHRm1ZwY-23" value="CP" style="rounded=0;whiteSpace=wrap;html=1;strokeColor=none;fontSize=8;" vertex="1" parent="1">
          <mxGeometry x="440" y="1280" width="50.04" height="20" as="geometry" />
        </mxCell>
        <mxCell id="yB-q2PVRav_EBHRm1ZwY-24" value="First OFDM symbol" style="rounded=0;whiteSpace=wrap;html=1;strokeColor=none;fontSize=8;" vertex="1" parent="1">
          <mxGeometry x="490.03999999999996" y="1280" width="170" height="20" as="geometry" />
        </mxCell>
        <mxCell id="yB-q2PVRav_EBHRm1ZwY-25" value="CP" style="rounded=0;whiteSpace=wrap;html=1;strokeColor=none;fontSize=8;" vertex="1" parent="1">
          <mxGeometry x="660.04" y="1280" width="50.04" height="20" as="geometry" />
        </mxCell>
        <mxCell id="yB-q2PVRav_EBHRm1ZwY-26" value="..." style="rounded=0;whiteSpace=wrap;html=1;strokeColor=none;fontSize=8;" vertex="1" parent="1">
          <mxGeometry x="710.08" y="1280" width="69.92" height="20" as="geometry" />
        </mxCell>
        <mxCell id="yB-q2PVRav_EBHRm1ZwY-27" value="" style="rounded=0;whiteSpace=wrap;html=1;fillColor=none;" vertex="1" parent="1">
          <mxGeometry x="219.96" y="1280" width="220.04" height="20" as="geometry" />
        </mxCell>
        <mxCell id="yB-q2PVRav_EBHRm1ZwY-28" value="" style="rounded=0;whiteSpace=wrap;html=1;fillColor=none;" vertex="1" parent="1">
          <mxGeometry x="440" y="1280" width="220.04" height="20" as="geometry" />
        </mxCell>
        <mxCell id="yB-q2PVRav_EBHRm1ZwY-29" value="" style="endArrow=none;html=1;rounded=0;entryX=0.25;entryY=0;entryDx=0;entryDy=0;exitX=0.25;exitY=1;exitDx=0;exitDy=0;" edge="1" parent="1">
          <mxGeometry width="50" height="50" relative="1" as="geometry">
            <mxPoint x="489.82000000000005" y="1300" as="sourcePoint" />
            <mxPoint x="489.82000000000005" y="1280" as="targetPoint" />
            <Array as="points" />
          </mxGeometry>
        </mxCell>
        <mxCell id="yB-q2PVRav_EBHRm1ZwY-30" value="" style="endArrow=none;html=1;rounded=0;entryX=0.25;entryY=0;entryDx=0;entryDy=0;exitX=0.25;exitY=1;exitDx=0;exitDy=0;" edge="1" parent="1">
          <mxGeometry width="50" height="50" relative="1" as="geometry">
            <mxPoint x="270" y="1300" as="sourcePoint" />
            <mxPoint x="270" y="1280" as="targetPoint" />
            <Array as="points" />
          </mxGeometry>
        </mxCell>
        <mxCell id="yB-q2PVRav_EBHRm1ZwY-31" value="" style="rounded=0;whiteSpace=wrap;html=1;strokeColor=none;fillColor=none;" vertex="1" parent="1">
          <mxGeometry x="660.04" y="1280" width="119.96" height="20" as="geometry" />
        </mxCell>
        <mxCell id="yB-q2PVRav_EBHRm1ZwY-32" value="" style="endArrow=none;html=1;rounded=0;entryX=0.25;entryY=0;entryDx=0;entryDy=0;exitX=0.25;exitY=1;exitDx=0;exitDy=0;" edge="1" parent="1">
          <mxGeometry width="50" height="50" relative="1" as="geometry">
            <mxPoint x="659.73" y="1300" as="sourcePoint" />
            <mxPoint x="659.73" y="1280" as="targetPoint" />
            <Array as="points" />
          </mxGeometry>
        </mxCell>
        <mxCell id="yB-q2PVRav_EBHRm1ZwY-33" value="" style="endArrow=none;html=1;rounded=0;entryX=0;entryY=0;entryDx=0;entryDy=0;exitX=1;exitY=0;exitDx=0;exitDy=0;" edge="1" parent="1" source="yB-q2PVRav_EBHRm1ZwY-31" target="yB-q2PVRav_EBHRm1ZwY-31">
          <mxGeometry width="50" height="50" relative="1" as="geometry">
            <mxPoint x="669.73" y="1310" as="sourcePoint" />
            <mxPoint x="669.73" y="1290" as="targetPoint" />
            <Array as="points" />
          </mxGeometry>
        </mxCell>
        <mxCell id="yB-q2PVRav_EBHRm1ZwY-34" value="" style="endArrow=none;html=1;rounded=0;entryX=0;entryY=0;entryDx=0;entryDy=0;exitX=1;exitY=0;exitDx=0;exitDy=0;" edge="1" parent="1">
          <mxGeometry width="50" height="50" relative="1" as="geometry">
            <mxPoint x="780.04" y="1300" as="sourcePoint" />
            <mxPoint x="660.04" y="1300" as="targetPoint" />
            <Array as="points" />
          </mxGeometry>
        </mxCell>
        <mxCell id="A9EnLsKWtSBPzANMAu5m-147" value="" style="endArrow=classic;html=1;rounded=0;exitX=0.048;exitY=0.16;exitDx=0;exitDy=0;exitPerimeter=0;entryX=0.952;entryY=0.16;entryDx=0;entryDy=0;entryPerimeter=0;fontColor=#808080;strokeColor=#808080;" parent="1" edge="1">
          <mxGeometry width="50" height="50" relative="1" as="geometry">
            <mxPoint x="118.99" y="1560" as="sourcePoint" />
            <mxPoint x="679.47" y="1560" as="targetPoint" />
          </mxGeometry>
        </mxCell>
        <mxCell id="yB-q2PVRav_EBHRm1ZwY-35" value="&lt;font style=&quot;font-size: 8px;&quot;&gt;time&lt;/font&gt;" style="edgeLabel;html=1;align=center;verticalAlign=middle;resizable=0;points=[];" vertex="1" connectable="0" parent="A9EnLsKWtSBPzANMAu5m-147">
          <mxGeometry x="0.9329" y="-3" relative="1" as="geometry">
            <mxPoint x="1" y="4" as="offset" />
          </mxGeometry>
        </mxCell>
        <mxCell id="yB-q2PVRav_EBHRm1ZwY-36" value="" style="endArrow=classic;startArrow=classic;html=1;rounded=0;entryX=0;entryY=0.5;entryDx=0;entryDy=0;fontColor=#A680B8;fillColor=#e1d5e7;strokeColor=#9673a6;" edge="1" parent="1" target="yB-q2PVRav_EBHRm1ZwY-27">
          <mxGeometry width="50" height="50" relative="1" as="geometry">
            <mxPoint x="120" y="1290" as="sourcePoint" />
            <mxPoint x="390" y="1400" as="targetPoint" />
          </mxGeometry>
        </mxCell>
        <mxCell id="yB-q2PVRav_EBHRm1ZwY-37" value="&lt;font style=&quot;font-size: 8px;&quot;&gt;K/2&lt;/font&gt;" style="edgeLabel;html=1;align=center;verticalAlign=middle;resizable=0;points=[];fontColor=#A680B8;" vertex="1" connectable="0" parent="yB-q2PVRav_EBHRm1ZwY-36">
          <mxGeometry x="0.0083" y="3" relative="1" as="geometry">
            <mxPoint as="offset" />
          </mxGeometry>
        </mxCell>
        <mxCell id="yB-q2PVRav_EBHRm1ZwY-38" value="" style="endArrow=none;dashed=1;html=1;rounded=0;entryX=1;entryY=1;entryDx=0;entryDy=0;fillColor=#e1d5e7;strokeColor=#9673a6;" edge="1" parent="1">
          <mxGeometry width="50" height="50" relative="1" as="geometry">
            <mxPoint x="460" y="1680" as="sourcePoint" />
            <mxPoint x="459.35" y="1300" as="targetPoint" />
          </mxGeometry>
        </mxCell>
        <mxCell id="yB-q2PVRav_EBHRm1ZwY-39" value="" style="endArrow=classic;startArrow=classic;html=1;rounded=0;fontColor=#A680B8;fillColor=#e1d5e7;strokeColor=#9673a6;" edge="1" parent="1">
          <mxGeometry width="50" height="50" relative="1" as="geometry">
            <mxPoint x="339.47" y="1571" as="sourcePoint" />
            <mxPoint x="460" y="1571" as="targetPoint" />
          </mxGeometry>
        </mxCell>
        <mxCell id="yB-q2PVRav_EBHRm1ZwY-40" value="&lt;font style=&quot;font-size: 8px;&quot;&gt;K/2 + CP/2&lt;/font&gt;" style="edgeLabel;html=1;align=center;verticalAlign=middle;resizable=0;points=[];fontColor=#A680B8;" vertex="1" connectable="0" parent="yB-q2PVRav_EBHRm1ZwY-39">
          <mxGeometry x="0.0083" y="3" relative="1" as="geometry">
            <mxPoint as="offset" />
          </mxGeometry>
        </mxCell>
        <mxCell id="yB-q2PVRav_EBHRm1ZwY-42" value="" style="endArrow=none;dashed=1;html=1;rounded=0;entryX=1;entryY=1;entryDx=0;entryDy=0;fillColor=#d5e8d4;strokeColor=#808080;" edge="1" parent="1">
          <mxGeometry width="50" height="50" relative="1" as="geometry">
            <mxPoint x="289" y="1680" as="sourcePoint" />
            <mxPoint x="289" y="1480" as="targetPoint" />
          </mxGeometry>
        </mxCell>
        <mxCell id="yB-q2PVRav_EBHRm1ZwY-43" value="" style="endArrow=none;dashed=1;html=1;rounded=0;fillColor=#d5e8d4;strokeColor=#808080;" edge="1" parent="1">
          <mxGeometry width="50" height="50" relative="1" as="geometry">
            <mxPoint x="364.35" y="1680" as="sourcePoint" />
            <mxPoint x="364.35" y="1480" as="targetPoint" />
          </mxGeometry>
        </mxCell>
        <mxCell id="yB-q2PVRav_EBHRm1ZwY-44" value="&lt;b&gt;FSM States:&lt;/b&gt;" style="text;html=1;align=center;verticalAlign=middle;resizable=0;points=[];autosize=1;strokeColor=none;fillColor=none;" vertex="1" parent="1">
          <mxGeometry x="59.99999999999999" y="1650" width="90" height="30" as="geometry" />
        </mxCell>
        <mxCell id="yB-q2PVRav_EBHRm1ZwY-45" value="searching" style="text;html=1;align=center;verticalAlign=middle;resizable=0;points=[];autosize=1;strokeColor=none;fillColor=none;fontStyle=2" vertex="1" parent="1">
          <mxGeometry x="165" y="1650" width="80" height="30" as="geometry" />
        </mxCell>
        <mxCell id="yB-q2PVRav_EBHRm1ZwY-46" value="detecting" style="text;html=1;align=center;verticalAlign=middle;resizable=0;points=[];autosize=1;strokeColor=none;fillColor=none;fontStyle=2" vertex="1" parent="1">
          <mxGeometry x="289.96" y="1650" width="70" height="30" as="geometry" />
        </mxCell>
        <mxCell id="yB-q2PVRav_EBHRm1ZwY-47" value="detected" style="text;html=1;align=center;verticalAlign=middle;resizable=0;points=[];autosize=1;strokeColor=none;fillColor=none;fontStyle=2" vertex="1" parent="1">
          <mxGeometry x="370" y="1650" width="70" height="30" as="geometry" />
        </mxCell>
        <mxCell id="yB-q2PVRav_EBHRm1ZwY-48" value="forwarding" style="text;html=1;align=center;verticalAlign=middle;resizable=0;points=[];autosize=1;strokeColor=none;fillColor=none;fontStyle=2" vertex="1" parent="1">
          <mxGeometry x="495" y="1650" width="80" height="30" as="geometry" />
        </mxCell>
        <mxCell id="yB-q2PVRav_EBHRm1ZwY-49" value="" style="endArrow=classic;html=1;rounded=0;fillColor=#fff2cc;strokeColor=#d6b656;" edge="1" parent="1">
          <mxGeometry width="50" height="50" relative="1" as="geometry">
            <mxPoint x="339.96" y="1590" as="sourcePoint" />
            <mxPoint x="460" y="1590" as="targetPoint" />
          </mxGeometry>
        </mxCell>
        <mxCell id="yB-q2PVRav_EBHRm1ZwY-50" value="&lt;font&gt;decrement a counter&lt;br&gt;from the max value &lt;br&gt;found so far&lt;/font&gt;" style="edgeLabel;html=1;align=center;verticalAlign=middle;resizable=0;points=[];fontSize=8;" vertex="1" connectable="0" parent="yB-q2PVRav_EBHRm1ZwY-49">
          <mxGeometry x="-0.0233" y="1" relative="1" as="geometry">
            <mxPoint y="21" as="offset" />
          </mxGeometry>
        </mxCell>
        <mxCell id="yB-q2PVRav_EBHRm1ZwY-51" value="" style="endArrow=classic;html=1;rounded=0;fillColor=#ffe6cc;strokeColor=#d79b00;" edge="1" parent="1">
          <mxGeometry width="50" height="50" relative="1" as="geometry">
            <mxPoint x="459.96" y="1590" as="sourcePoint" />
            <mxPoint x="680" y="1590" as="targetPoint" />
          </mxGeometry>
        </mxCell>
        <mxCell id="yB-q2PVRav_EBHRm1ZwY-52" value="&lt;font&gt;decrement a counter&lt;br&gt;until end of packet&lt;/font&gt;" style="edgeLabel;html=1;align=center;verticalAlign=middle;resizable=0;points=[];fontSize=8;" vertex="1" connectable="0" parent="yB-q2PVRav_EBHRm1ZwY-51">
          <mxGeometry x="-0.0233" y="1" relative="1" as="geometry">
            <mxPoint y="13" as="offset" />
          </mxGeometry>
        </mxCell>
        <mxCell id="yB-q2PVRav_EBHRm1ZwY-54" style="edgeStyle=orthogonalEdgeStyle;rounded=0;orthogonalLoop=1;jettySize=auto;html=1;endArrow=blockThin;endFill=1;" edge="1" parent="1">
          <mxGeometry relative="1" as="geometry">
            <mxPoint x="120" y="1530" as="targetPoint" />
            <Array as="points">
              <mxPoint x="66" y="1530" />
              <mxPoint x="124" y="1530" />
            </Array>
            <mxPoint x="60" y="1530" as="sourcePoint" />
          </mxGeometry>
        </mxCell>
        <mxCell id="yB-q2PVRav_EBHRm1ZwY-57" value="&lt;span style=&quot;color: rgba(0, 0, 0, 0); font-family: monospace; font-size: 0px; text-align: start; background-color: rgb(251, 251, 251);&quot;&gt;%3CmxGraphModel%3E%3Croot%3E%3CmxCell%20id%3D%220%22%2F%3E%3CmxCell%20id%3D%221%22%20parent%3D%220%22%2F%3E%3CmxCell%20id%3D%222%22%20value%3D%22%26lt%3Bfont%20style%3D%26quot%3Bfont-size%3A%208px%3B%26quot%3B%26gt%3B32%20%2B%20clog%26lt%3Bsub%20style%3D%26quot%3B%26quot%3B%26gt%3B2%26lt%3B%2Fsub%26gt%3B(CP)%20b%26lt%3B%2Ffont%26gt%3B%22%20style%3D%22edgeLabel%3Bhtml%3D1%3Balign%3Dcenter%3BverticalAlign%3Dmiddle%3Bresizable%3D0%3Bpoints%3D%5B%5D%3B%22%20vertex%3D%221%22%20connectable%3D%220%22%20parent%3D%221%22%3E%3CmxGeometry%20x%3D%22460%22%20y%3D%221096.5333333333333%22%20as%3D%22geometry%22%2F%3E%3C%2FmxCell%3E%3C%2Froot%3E%3C%2FmxGraphModel%3E&lt;/span&gt;&lt;span style=&quot;color: rgba(0, 0, 0, 0); font-family: monospace; font-size: 0px; text-align: start; background-color: rgb(251, 251, 251);&quot;&gt;%3CmxGraphModel%3E%3Croot%3E%3CmxCell%20id%3D%220%22%2F%3E%3CmxCell%20id%3D%221%22%20parent%3D%220%22%2F%3E%3CmxCell%20id%3D%222%22%20value%3D%22%26lt%3Bfont%20style%3D%26quot%3Bfont-size%3A%208px%3B%26quot%3B%26gt%3B32%20%2B%20clog%26lt%3Bsub%20style%3D%26quot%3B%26quot%3B%26gt%3B2%26lt%3B%2Fsub%26gt%3B(CP)%20b%26lt%3B%2Ffont%26gt%3B%22%20style%3D%22edgeLabel%3Bhtml%3D1%3Balign%3Dcenter%3BverticalAlign%3Dmiddle%3Bresizable%3D0%3Bpoints%3D%5B%5D%3B%22%20vertex%3D%221%22%20connectable%3D%220%22%20parent%3D%221%22%3E%3CmxGeometry%20x%3D%22460%22%20y%3D%221096.5333333333333%22%20as%3D%22geometry%22%2F%3E%3C%2FmxCell%3E%3C%2Froot%3E%3C%2FmxGraphModel%3E&lt;/span&gt;" style="edgeLabel;html=1;align=center;verticalAlign=middle;resizable=0;points=[];" vertex="1" connectable="0" parent="yB-q2PVRav_EBHRm1ZwY-54">
          <mxGeometry x="-0.2133" y="-1" relative="1" as="geometry">
            <mxPoint as="offset" />
          </mxGeometry>
        </mxCell>
        <mxCell id="yB-q2PVRav_EBHRm1ZwY-58" value="&lt;span style=&quot;font-size: 8px;&quot;&gt;32 + clog&lt;/span&gt;&lt;sub&gt;2&lt;/sub&gt;&lt;span style=&quot;font-size: 8px;&quot;&gt;(CP) b&lt;/span&gt;" style="edgeLabel;html=1;align=center;verticalAlign=middle;resizable=0;points=[];" vertex="1" connectable="0" parent="yB-q2PVRav_EBHRm1ZwY-54">
          <mxGeometry x="-0.0444" y="1" relative="1" as="geometry">
            <mxPoint x="4" y="12" as="offset" />
          </mxGeometry>
        </mxCell>
        <mxCell id="yB-q2PVRav_EBHRm1ZwY-59" style="edgeStyle=orthogonalEdgeStyle;rounded=0;orthogonalLoop=1;jettySize=auto;html=1;endArrow=blockThin;endFill=1;" edge="1" parent="1">
          <mxGeometry relative="1" as="geometry">
            <mxPoint x="120" y="1289.87" as="targetPoint" />
            <Array as="points">
              <mxPoint x="66" y="1289.87" />
              <mxPoint x="124" y="1289.87" />
            </Array>
            <mxPoint x="60" y="1289.87" as="sourcePoint" />
          </mxGeometry>
        </mxCell>
        <mxCell id="yB-q2PVRav_EBHRm1ZwY-60" value="&lt;span style=&quot;color: rgba(0, 0, 0, 0); font-family: monospace; font-size: 0px; text-align: start; background-color: rgb(251, 251, 251);&quot;&gt;%3CmxGraphModel%3E%3Croot%3E%3CmxCell%20id%3D%220%22%2F%3E%3CmxCell%20id%3D%221%22%20parent%3D%220%22%2F%3E%3CmxCell%20id%3D%222%22%20value%3D%22%26lt%3Bfont%20style%3D%26quot%3Bfont-size%3A%208px%3B%26quot%3B%26gt%3B32%20%2B%20clog%26lt%3Bsub%20style%3D%26quot%3B%26quot%3B%26gt%3B2%26lt%3B%2Fsub%26gt%3B(CP)%20b%26lt%3B%2Ffont%26gt%3B%22%20style%3D%22edgeLabel%3Bhtml%3D1%3Balign%3Dcenter%3BverticalAlign%3Dmiddle%3Bresizable%3D0%3Bpoints%3D%5B%5D%3B%22%20vertex%3D%221%22%20connectable%3D%220%22%20parent%3D%221%22%3E%3CmxGeometry%20x%3D%22460%22%20y%3D%221096.5333333333333%22%20as%3D%22geometry%22%2F%3E%3C%2FmxCell%3E%3C%2Froot%3E%3C%2FmxGraphModel%3E&lt;/span&gt;&lt;span style=&quot;color: rgba(0, 0, 0, 0); font-family: monospace; font-size: 0px; text-align: start; background-color: rgb(251, 251, 251);&quot;&gt;%3CmxGraphModel%3E%3Croot%3E%3CmxCell%20id%3D%220%22%2F%3E%3CmxCell%20id%3D%221%22%20parent%3D%220%22%2F%3E%3CmxCell%20id%3D%222%22%20value%3D%22%26lt%3Bfont%20style%3D%26quot%3Bfont-size%3A%208px%3B%26quot%3B%26gt%3B32%20%2B%20clog%26lt%3Bsub%20style%3D%26quot%3B%26quot%3B%26gt%3B2%26lt%3B%2Fsub%26gt%3B(CP)%20b%26lt%3B%2Ffont%26gt%3B%22%20style%3D%22edgeLabel%3Bhtml%3D1%3Balign%3Dcenter%3BverticalAlign%3Dmiddle%3Bresizable%3D0%3Bpoints%3D%5B%5D%3B%22%20vertex%3D%221%22%20connectable%3D%220%22%20parent%3D%221%22%3E%3CmxGeometry%20x%3D%22460%22%20y%3D%221096.5333333333333%22%20as%3D%22geometry%22%2F%3E%3C%2FmxCell%3E%3C%2Froot%3E%3C%2FmxGraphModel%3E&lt;/span&gt;" style="edgeLabel;html=1;align=center;verticalAlign=middle;resizable=0;points=[];" vertex="1" connectable="0" parent="yB-q2PVRav_EBHRm1ZwY-59">
          <mxGeometry x="-0.2133" y="-1" relative="1" as="geometry">
            <mxPoint as="offset" />
          </mxGeometry>
        </mxCell>
        <mxCell id="yB-q2PVRav_EBHRm1ZwY-61" value="&lt;span style=&quot;font-size: 8px;&quot;&gt;32 b/c&lt;/span&gt;" style="edgeLabel;html=1;align=center;verticalAlign=middle;resizable=0;points=[];" vertex="1" connectable="0" parent="yB-q2PVRav_EBHRm1ZwY-59">
          <mxGeometry x="-0.0444" y="1" relative="1" as="geometry">
            <mxPoint x="4" y="12" as="offset" />
          </mxGeometry>
        </mxCell>
        <mxCell id="yB-q2PVRav_EBHRm1ZwY-62" style="edgeStyle=orthogonalEdgeStyle;rounded=0;orthogonalLoop=1;jettySize=auto;html=1;endArrow=blockThin;endFill=1;" edge="1" parent="1">
          <mxGeometry relative="1" as="geometry">
            <mxPoint x="540" y="1760" as="targetPoint" />
            <Array as="points">
              <mxPoint x="540" y="1760" />
            </Array>
            <mxPoint x="540" y="1681" as="sourcePoint" />
          </mxGeometry>
        </mxCell>
        <mxCell id="yB-q2PVRav_EBHRm1ZwY-63" value="&lt;span style=&quot;color: rgba(0, 0, 0, 0); font-family: monospace; font-size: 0px; text-align: start; background-color: rgb(251, 251, 251);&quot;&gt;%3CmxGraphModel%3E%3Croot%3E%3CmxCell%20id%3D%220%22%2F%3E%3CmxCell%20id%3D%221%22%20parent%3D%220%22%2F%3E%3CmxCell%20id%3D%222%22%20value%3D%22%26lt%3Bfont%20style%3D%26quot%3Bfont-size%3A%208px%3B%26quot%3B%26gt%3B32%20%2B%20clog%26lt%3Bsub%20style%3D%26quot%3B%26quot%3B%26gt%3B2%26lt%3B%2Fsub%26gt%3B(CP)%20b%26lt%3B%2Ffont%26gt%3B%22%20style%3D%22edgeLabel%3Bhtml%3D1%3Balign%3Dcenter%3BverticalAlign%3Dmiddle%3Bresizable%3D0%3Bpoints%3D%5B%5D%3B%22%20vertex%3D%221%22%20connectable%3D%220%22%20parent%3D%221%22%3E%3CmxGeometry%20x%3D%22460%22%20y%3D%221096.5333333333333%22%20as%3D%22geometry%22%2F%3E%3C%2FmxCell%3E%3C%2Froot%3E%3C%2FmxGraphModel%3E&lt;/span&gt;&lt;span style=&quot;color: rgba(0, 0, 0, 0); font-family: monospace; font-size: 0px; text-align: start; background-color: rgb(251, 251, 251);&quot;&gt;%3CmxGraphModel%3E%3Croot%3E%3CmxCell%20id%3D%220%22%2F%3E%3CmxCell%20id%3D%221%22%20parent%3D%220%22%2F%3E%3CmxCell%20id%3D%222%22%20value%3D%22%26lt%3Bfont%20style%3D%26quot%3Bfont-size%3A%208px%3B%26quot%3B%26gt%3B32%20%2B%20clog%26lt%3Bsub%20style%3D%26quot%3B%26quot%3B%26gt%3B2%26lt%3B%2Fsub%26gt%3B(CP)%20b%26lt%3B%2Ffont%26gt%3B%22%20style%3D%22edgeLabel%3Bhtml%3D1%3Balign%3Dcenter%3BverticalAlign%3Dmiddle%3Bresizable%3D0%3Bpoints%3D%5B%5D%3B%22%20vertex%3D%221%22%20connectable%3D%220%22%20parent%3D%221%22%3E%3CmxGeometry%20x%3D%22460%22%20y%3D%221096.5333333333333%22%20as%3D%22geometry%22%2F%3E%3C%2FmxCell%3E%3C%2Froot%3E%3C%2FmxGraphModel%3E&lt;/span&gt;" style="edgeLabel;html=1;align=center;verticalAlign=middle;resizable=0;points=[];" vertex="1" connectable="0" parent="yB-q2PVRav_EBHRm1ZwY-62">
          <mxGeometry x="-0.2133" y="-1" relative="1" as="geometry">
            <mxPoint as="offset" />
          </mxGeometry>
        </mxCell>
        <mxCell id="yB-q2PVRav_EBHRm1ZwY-64" value="&lt;span style=&quot;font-size: 8px;&quot;&gt;32 b/c&lt;br&gt;&lt;i&gt;Original signal&lt;/i&gt;&lt;/span&gt;" style="edgeLabel;html=1;align=center;verticalAlign=middle;resizable=0;points=[];" vertex="1" connectable="0" parent="yB-q2PVRav_EBHRm1ZwY-62">
          <mxGeometry x="-0.0444" y="1" relative="1" as="geometry">
            <mxPoint x="-2" y="-5" as="offset" />
          </mxGeometry>
        </mxCell>
        <mxCell id="yB-q2PVRav_EBHRm1ZwY-65" style="edgeStyle=orthogonalEdgeStyle;rounded=0;orthogonalLoop=1;jettySize=auto;html=1;endArrow=blockThin;endFill=1;entryX=1;entryY=0.25;entryDx=0;entryDy=0;" edge="1" parent="1" target="yB-q2PVRav_EBHRm1ZwY-71">
          <mxGeometry relative="1" as="geometry">
            <mxPoint x="560" y="1780" as="targetPoint" />
            <Array as="points">
              <mxPoint x="720" y="1540" />
              <mxPoint x="720" y="1780" />
            </Array>
            <mxPoint x="680" y="1540" as="sourcePoint" />
          </mxGeometry>
        </mxCell>
        <mxCell id="yB-q2PVRav_EBHRm1ZwY-66" value="&lt;span style=&quot;color: rgba(0, 0, 0, 0); font-family: monospace; font-size: 0px; text-align: start; background-color: rgb(251, 251, 251);&quot;&gt;%3CmxGraphModel%3E%3Croot%3E%3CmxCell%20id%3D%220%22%2F%3E%3CmxCell%20id%3D%221%22%20parent%3D%220%22%2F%3E%3CmxCell%20id%3D%222%22%20value%3D%22%26lt%3Bfont%20style%3D%26quot%3Bfont-size%3A%208px%3B%26quot%3B%26gt%3B32%20%2B%20clog%26lt%3Bsub%20style%3D%26quot%3B%26quot%3B%26gt%3B2%26lt%3B%2Fsub%26gt%3B(CP)%20b%26lt%3B%2Ffont%26gt%3B%22%20style%3D%22edgeLabel%3Bhtml%3D1%3Balign%3Dcenter%3BverticalAlign%3Dmiddle%3Bresizable%3D0%3Bpoints%3D%5B%5D%3B%22%20vertex%3D%221%22%20connectable%3D%220%22%20parent%3D%221%22%3E%3CmxGeometry%20x%3D%22460%22%20y%3D%221096.5333333333333%22%20as%3D%22geometry%22%2F%3E%3C%2FmxCell%3E%3C%2Froot%3E%3C%2FmxGraphModel%3E&lt;/span&gt;&lt;span style=&quot;color: rgba(0, 0, 0, 0); font-family: monospace; font-size: 0px; text-align: start; background-color: rgb(251, 251, 251);&quot;&gt;%3CmxGraphModel%3E%3Croot%3E%3CmxCell%20id%3D%220%22%2F%3E%3CmxCell%20id%3D%221%22%20parent%3D%220%22%2F%3E%3CmxCell%20id%3D%222%22%20value%3D%22%26lt%3Bfont%20style%3D%26quot%3Bfont-size%3A%208px%3B%26quot%3B%26gt%3B32%20%2B%20clog%26lt%3Bsub%20style%3D%26quot%3B%26quot%3B%26gt%3B2%26lt%3B%2Fsub%26gt%3B(CP)%20b%26lt%3B%2Ffont%26gt%3B%22%20style%3D%22edgeLabel%3Bhtml%3D1%3Balign%3Dcenter%3BverticalAlign%3Dmiddle%3Bresizable%3D0%3Bpoints%3D%5B%5D%3B%22%20vertex%3D%221%22%20connectable%3D%220%22%20parent%3D%221%22%3E%3CmxGeometry%20x%3D%22460%22%20y%3D%221096.5333333333333%22%20as%3D%22geometry%22%2F%3E%3C%2FmxCell%3E%3C%2Froot%3E%3C%2FmxGraphModel%3E&lt;/span&gt;" style="edgeLabel;html=1;align=center;verticalAlign=middle;resizable=0;points=[];" vertex="1" connectable="0" parent="yB-q2PVRav_EBHRm1ZwY-65">
          <mxGeometry x="-0.2133" y="-1" relative="1" as="geometry">
            <mxPoint as="offset" />
          </mxGeometry>
        </mxCell>
        <mxCell id="yB-q2PVRav_EBHRm1ZwY-67" value="&lt;span style=&quot;font-size: 8px;&quot;&gt;32 b&lt;br&gt;&lt;i&gt;Metric MSB&lt;/i&gt;&lt;/span&gt;" style="edgeLabel;html=1;align=center;verticalAlign=middle;resizable=0;points=[];" vertex="1" connectable="0" parent="yB-q2PVRav_EBHRm1ZwY-65">
          <mxGeometry x="-0.0444" y="1" relative="1" as="geometry">
            <mxPoint x="-2" y="-44" as="offset" />
          </mxGeometry>
        </mxCell>
        <mxCell id="yB-q2PVRav_EBHRm1ZwY-68" style="edgeStyle=orthogonalEdgeStyle;rounded=0;orthogonalLoop=1;jettySize=auto;html=1;endArrow=blockThin;endFill=1;entryX=1;entryY=0.75;entryDx=0;entryDy=0;" edge="1" parent="1" target="yB-q2PVRav_EBHRm1ZwY-71">
          <mxGeometry relative="1" as="geometry">
            <mxPoint x="560" y="1800" as="targetPoint" />
            <Array as="points">
              <mxPoint x="750" y="1534" />
              <mxPoint x="750" y="1820" />
            </Array>
            <mxPoint x="680" y="1534" as="sourcePoint" />
          </mxGeometry>
        </mxCell>
        <mxCell id="yB-q2PVRav_EBHRm1ZwY-69" value="&lt;span style=&quot;color: rgba(0, 0, 0, 0); font-family: monospace; font-size: 0px; text-align: start; background-color: rgb(251, 251, 251);&quot;&gt;%3CmxGraphModel%3E%3Croot%3E%3CmxCell%20id%3D%220%22%2F%3E%3CmxCell%20id%3D%221%22%20parent%3D%220%22%2F%3E%3CmxCell%20id%3D%222%22%20value%3D%22%26lt%3Bfont%20style%3D%26quot%3Bfont-size%3A%208px%3B%26quot%3B%26gt%3B32%20%2B%20clog%26lt%3Bsub%20style%3D%26quot%3B%26quot%3B%26gt%3B2%26lt%3B%2Fsub%26gt%3B(CP)%20b%26lt%3B%2Ffont%26gt%3B%22%20style%3D%22edgeLabel%3Bhtml%3D1%3Balign%3Dcenter%3BverticalAlign%3Dmiddle%3Bresizable%3D0%3Bpoints%3D%5B%5D%3B%22%20vertex%3D%221%22%20connectable%3D%220%22%20parent%3D%221%22%3E%3CmxGeometry%20x%3D%22460%22%20y%3D%221096.5333333333333%22%20as%3D%22geometry%22%2F%3E%3C%2FmxCell%3E%3C%2Froot%3E%3C%2FmxGraphModel%3E&lt;/span&gt;&lt;span style=&quot;color: rgba(0, 0, 0, 0); font-family: monospace; font-size: 0px; text-align: start; background-color: rgb(251, 251, 251);&quot;&gt;%3CmxGraphModel%3E%3Croot%3E%3CmxCell%20id%3D%220%22%2F%3E%3CmxCell%20id%3D%221%22%20parent%3D%220%22%2F%3E%3CmxCell%20id%3D%222%22%20value%3D%22%26lt%3Bfont%20style%3D%26quot%3Bfont-size%3A%208px%3B%26quot%3B%26gt%3B32%20%2B%20clog%26lt%3Bsub%20style%3D%26quot%3B%26quot%3B%26gt%3B2%26lt%3B%2Fsub%26gt%3B(CP)%20b%26lt%3B%2Ffont%26gt%3B%22%20style%3D%22edgeLabel%3Bhtml%3D1%3Balign%3Dcenter%3BverticalAlign%3Dmiddle%3Bresizable%3D0%3Bpoints%3D%5B%5D%3B%22%20vertex%3D%221%22%20connectable%3D%220%22%20parent%3D%221%22%3E%3CmxGeometry%20x%3D%22460%22%20y%3D%221096.5333333333333%22%20as%3D%22geometry%22%2F%3E%3C%2FmxCell%3E%3C%2Froot%3E%3C%2FmxGraphModel%3E&lt;/span&gt;" style="edgeLabel;html=1;align=center;verticalAlign=middle;resizable=0;points=[];" vertex="1" connectable="0" parent="yB-q2PVRav_EBHRm1ZwY-68">
          <mxGeometry x="-0.2133" y="-1" relative="1" as="geometry">
            <mxPoint as="offset" />
          </mxGeometry>
        </mxCell>
        <mxCell id="yB-q2PVRav_EBHRm1ZwY-70" value="&lt;span style=&quot;font-size: 8px;&quot;&gt;32 b&lt;br&gt;&lt;i&gt;Metric LSB&lt;/i&gt;&lt;/span&gt;" style="edgeLabel;html=1;align=center;verticalAlign=middle;resizable=0;points=[];" vertex="1" connectable="0" parent="yB-q2PVRav_EBHRm1ZwY-68">
          <mxGeometry x="-0.0444" y="1" relative="1" as="geometry">
            <mxPoint x="-2" y="-8" as="offset" />
          </mxGeometry>
        </mxCell>
        <mxCell id="yB-q2PVRav_EBHRm1ZwY-71" value="&lt;font style=&quot;line-height: 100%;&quot;&gt;&lt;b&gt;output_select&lt;br&gt;&lt;/b&gt;&lt;/font&gt;&lt;i&gt;Select the signal outputed by the detector block:&lt;br&gt;- 00: signal with zeros&lt;/i&gt;&lt;div&gt;&lt;i&gt;- 01: valid signal only&amp;nbsp;&lt;/i&gt;&lt;/div&gt;&lt;div&gt;&lt;i&gt;- 10: metric N(d) MSB&lt;/i&gt;&lt;/div&gt;&lt;div&gt;&lt;i&gt;- 11: metric N(d) LSB&amp;nbsp;&lt;/i&gt;&lt;/div&gt;" style="whiteSpace=wrap;html=1;noLabel=0;portConstraintRotation=0;snapToPoint=0;verticalAlign=top;textDirection=ltr;fontSize=8;spacingRight=2;spacingLeft=2;strokeColor=#97D077;" vertex="1" parent="1">
          <mxGeometry x="439.51" y="1760" width="120" height="80" as="geometry" />
        </mxCell>
        <mxCell id="yB-q2PVRav_EBHRm1ZwY-72" style="edgeStyle=orthogonalEdgeStyle;rounded=0;orthogonalLoop=1;jettySize=auto;html=1;endArrow=blockThin;endFill=1;" edge="1" parent="1">
          <mxGeometry relative="1" as="geometry">
            <mxPoint x="500" y="1920" as="targetPoint" />
            <Array as="points">
              <mxPoint x="500" y="1919" />
            </Array>
            <mxPoint x="500" y="1840" as="sourcePoint" />
          </mxGeometry>
        </mxCell>
        <mxCell id="yB-q2PVRav_EBHRm1ZwY-73" value="&lt;span style=&quot;color: rgba(0, 0, 0, 0); font-family: monospace; font-size: 0px; text-align: start; background-color: rgb(251, 251, 251);&quot;&gt;%3CmxGraphModel%3E%3Croot%3E%3CmxCell%20id%3D%220%22%2F%3E%3CmxCell%20id%3D%221%22%20parent%3D%220%22%2F%3E%3CmxCell%20id%3D%222%22%20value%3D%22%26lt%3Bfont%20style%3D%26quot%3Bfont-size%3A%208px%3B%26quot%3B%26gt%3B32%20%2B%20clog%26lt%3Bsub%20style%3D%26quot%3B%26quot%3B%26gt%3B2%26lt%3B%2Fsub%26gt%3B(CP)%20b%26lt%3B%2Ffont%26gt%3B%22%20style%3D%22edgeLabel%3Bhtml%3D1%3Balign%3Dcenter%3BverticalAlign%3Dmiddle%3Bresizable%3D0%3Bpoints%3D%5B%5D%3B%22%20vertex%3D%221%22%20connectable%3D%220%22%20parent%3D%221%22%3E%3CmxGeometry%20x%3D%22460%22%20y%3D%221096.5333333333333%22%20as%3D%22geometry%22%2F%3E%3C%2FmxCell%3E%3C%2Froot%3E%3C%2FmxGraphModel%3E&lt;/span&gt;&lt;span style=&quot;color: rgba(0, 0, 0, 0); font-family: monospace; font-size: 0px; text-align: start; background-color: rgb(251, 251, 251);&quot;&gt;%3CmxGraphModel%3E%3Croot%3E%3CmxCell%20id%3D%220%22%2F%3E%3CmxCell%20id%3D%221%22%20parent%3D%220%22%2F%3E%3CmxCell%20id%3D%222%22%20value%3D%22%26lt%3Bfont%20style%3D%26quot%3Bfont-size%3A%208px%3B%26quot%3B%26gt%3B32%20%2B%20clog%26lt%3Bsub%20style%3D%26quot%3B%26quot%3B%26gt%3B2%26lt%3B%2Fsub%26gt%3B(CP)%20b%26lt%3B%2Ffont%26gt%3B%22%20style%3D%22edgeLabel%3Bhtml%3D1%3Balign%3Dcenter%3BverticalAlign%3Dmiddle%3Bresizable%3D0%3Bpoints%3D%5B%5D%3B%22%20vertex%3D%221%22%20connectable%3D%220%22%20parent%3D%221%22%3E%3CmxGeometry%20x%3D%22460%22%20y%3D%221096.5333333333333%22%20as%3D%22geometry%22%2F%3E%3C%2FmxCell%3E%3C%2Froot%3E%3C%2FmxGraphModel%3E&lt;/span&gt;" style="edgeLabel;html=1;align=center;verticalAlign=middle;resizable=0;points=[];" vertex="1" connectable="0" parent="yB-q2PVRav_EBHRm1ZwY-72">
          <mxGeometry x="-0.2133" y="-1" relative="1" as="geometry">
            <mxPoint as="offset" />
          </mxGeometry>
        </mxCell>
        <mxCell id="yB-q2PVRav_EBHRm1ZwY-74" value="&lt;span style=&quot;font-size: 8px;&quot;&gt;32 b/c (or b)&lt;br&gt;&lt;/span&gt;" style="edgeLabel;html=1;align=center;verticalAlign=middle;resizable=0;points=[];" vertex="1" connectable="0" parent="yB-q2PVRav_EBHRm1ZwY-72">
          <mxGeometry x="-0.0444" y="1" relative="1" as="geometry">
            <mxPoint x="-2" y="-20" as="offset" />
          </mxGeometry>
        </mxCell>
        <mxCell id="yB-q2PVRav_EBHRm1ZwY-76" value="&lt;b&gt;88&lt;/b&gt;" style="rounded=0;whiteSpace=wrap;html=1;fillColor=none;strokeColor=none;fontSize=10;fontColor=#EA6B66;align=right;" vertex="1" parent="1">
          <mxGeometry x="678.47" y="1040" width="30" height="20" as="geometry" />
        </mxCell>
        <mxCell id="yB-q2PVRav_EBHRm1ZwY-77" value="&lt;b&gt;0&lt;/b&gt;" style="rounded=0;whiteSpace=wrap;html=1;fillColor=none;strokeColor=none;fontSize=10;fontColor=#EA6B66;align=right;" vertex="1" parent="1">
          <mxGeometry x="759" y="1850" width="30" height="20" as="geometry" />
        </mxCell>
      </root>
    </mxGraphModel>
  </diagram>
</mxfile>
